<svg width="112" height="114" viewBox="0 0 112 114" fill="none" xmlns="http://www.w3.org/2000/svg">
<path d="M74.6667 75.7826L56 56.9492L37.3334 75.7826" stroke="#F6828A" stroke-width="5" stroke-linecap="round" stroke-linejoin="round"/>
<path d="M56 56.9492V99.3242" stroke="#F6828A" stroke-width="5" stroke-linecap="round" stroke-linejoin="round"/>
<path d="M95.1533 87.0354C99.7049 84.5318 103.301 80.5703 105.373 75.776C107.445 70.9817 107.876 65.6277 106.597 60.559C105.318 55.4902 102.403 50.9955 98.3111 47.7841C94.2193 44.5727 89.184 42.8276 84 42.8241H78.12C76.7075 37.3118 74.0747 32.1943 70.4198 27.8563C66.7648 23.5183 62.1826 20.0728 57.0178 17.7786C51.853 15.4845 46.2399 14.4016 40.6005 14.6112C34.9612 14.8209 29.4423 16.3176 24.4588 18.989C19.4753 21.6603 15.1569 25.4367 11.8282 30.0343C8.49956 34.6319 6.24723 39.931 5.24059 45.5333C4.23394 51.1355 4.49917 56.8951 6.01634 62.3791C7.53351 67.863 10.2631 72.9286 14 77.1949" stroke="#F6828A" stroke-width="5" stroke-linecap="round" stroke-linejoin="round"/>
<path d="M74.6667 75.7826L56 56.9492L37.3334 75.7826" stroke="#F6828A" stroke-width="5" stroke-linecap="round" stroke-linejoin="round"/>
</svg>
