<svg width="78" height="83" viewBox="0 0 78 83" fill="none" xmlns="http://www.w3.org/2000/svg">
<path d="M51.6555 55.1283L38.9 41.4561L26.1444 55.1283" stroke="#F6828A" stroke-width="5" stroke-linecap="round" stroke-linejoin="round"/>
<path d="M38.8999 41.4561V72.2187" stroke="#F6828A" stroke-width="5" stroke-linecap="round" stroke-linejoin="round"/>
<path d="M65.6547 63.2976C68.765 61.4802 71.222 58.6042 72.638 55.1237C74.054 51.6433 74.3483 47.7565 73.4745 44.0768C72.6007 40.3971 70.6086 37.134 67.8125 34.8027C65.0165 32.4713 61.5757 31.2044 58.0333 31.2019H54.0153C53.05 27.2002 51.251 23.4851 48.7534 20.3359C46.2559 17.1867 43.1247 14.6853 39.5954 13.0199C36.0661 11.3544 32.2305 10.5683 28.377 10.7204C24.5234 10.8726 20.7522 11.9592 17.3468 13.8985C13.9414 15.8378 10.9905 18.5793 8.7159 21.917C6.4413 25.2547 4.90221 29.1017 4.21433 33.1687C3.52646 37.2357 3.7077 41.4169 4.74443 45.3981C5.78117 49.3792 7.64641 53.0566 10.1999 56.1539" stroke="#F6828A" stroke-width="5" stroke-linecap="round" stroke-linejoin="round"/>
<path d="M51.6555 55.1283L38.9 41.4561L26.1444 55.1283" stroke="#F6828A" stroke-width="5" stroke-linecap="round" stroke-linejoin="round"/>
</svg>
