<svg width="100" height="151" viewBox="0 0 100 151" fill="none" xmlns="http://www.w3.org/2000/svg">
<path d="M0.275455 68.5894C0.673358 66.9426 1.81731 63.988 3.60787 59.6773C5.39844 55.3666 7.2885 51.1042 9.22828 46.8904C9.52671 46.3576 9.62621 46.0186 9.62621 45.8733C9.77542 45.728 9.82511 45.5827 9.82511 45.4858C10.8199 43.4515 11.6157 41.7563 12.2126 40.4001C12.8592 39.0439 13.4062 37.7362 14.003 36.4284C14.5502 35.1207 14.9978 34.2489 15.2465 33.6676L17.1366 30.035C17.1366 29.8897 17.1863 29.7444 17.236 29.6475C17.2858 29.5022 17.3356 29.3569 17.3356 29.26L17.7334 29.0663C17.435 28.7757 17.5842 28.3398 18.1313 27.6617C18.4298 27.371 18.6784 26.8383 18.9768 26.0149C19.2753 25.1915 19.5241 24.4649 19.8225 23.7868C20.668 21.8979 21.1653 20.7839 21.3643 20.4448C21.5632 20.1058 21.7622 19.9605 21.8617 19.9605C21.7125 19.8152 21.7125 19.6214 21.8617 19.3308C22.0109 19.0402 22.1601 18.9433 22.2596 18.9433V18.3137C22.4088 18.1683 22.6575 17.7325 23.0057 17.0059C23.3538 16.2794 23.7518 15.4076 24.1497 14.4873C24.9952 12.5984 25.6418 11.0484 26.1392 9.93441C26.6366 8.77197 27.0345 7.85166 27.3826 7.17357C27.7308 6.49548 28.0789 6.01114 28.427 5.67209C28.7752 5.33305 29.1731 4.9456 29.571 4.55812C30.2674 3.88003 30.715 3.49255 30.9139 3.34724C31.1129 3.20194 31.5606 2.86284 32.257 2.33006C34.346 0.828566 36.1365 0.102051 37.6784 0.102051C38.6731 0.102051 39.4192 0.295815 39.9663 0.731731C40.2648 0.731731 39.8171 1.21609 38.7229 2.13636C38.325 2.52384 37.9271 2.95976 37.5789 3.34724C37.2307 3.73472 36.9322 4.07376 36.6338 4.36437C36.6338 4.65498 36.4847 4.75181 36.236 4.75181C36.236 4.89712 36.1862 4.94557 36.037 4.94557C35.8878 5.09087 35.8381 5.2362 35.8381 5.33307C35.6889 5.72055 35.4899 5.96269 35.1915 5.96269C35.1915 6.108 35.1418 6.35017 34.9926 6.68922C34.8433 7.02826 34.7935 7.27044 34.7935 7.41575C34.6443 7.70636 34.5946 7.80325 34.6941 7.80325C34.7438 7.80325 34.8433 7.65792 34.9926 7.41575C35.1418 7.27044 35.3406 7.22205 35.639 7.22205C35.7883 7.07675 35.9375 6.88298 36.037 6.59237C36.1862 6.44707 36.3354 6.39862 36.4349 6.39862L36.6338 6.20487H36.8328L37.2308 6.01117H37.4297C37.2804 5.86587 37.2804 5.76895 37.4297 5.72052C37.5789 5.67208 37.7281 5.67212 37.8276 5.81742L38.4742 5.18774C40.7124 2.2332 41.9559 1.07077 42.2046 1.74886L42.6024 1.94261L42.8014 2.13636C43.0998 2.42697 43.2988 2.52381 43.448 2.52381C43.5972 2.52381 43.5972 2.81445 43.448 3.34724C43.2988 3.73472 43.3982 3.83155 43.6469 3.54093C43.9453 3.39563 43.995 3.54096 43.8458 3.92844C43.6966 4.46123 43.8458 4.55811 44.2437 4.12219C44.5422 3.73471 44.7411 3.49251 44.8904 3.49251L45.0893 3.68626C45.3877 3.97687 45.4872 4.17064 45.4872 4.31594L46.5317 5.33307L46.7306 5.52682C47.0291 5.81743 47.1286 6.01114 47.1286 6.15644C47.1286 6.30175 47.1783 6.39861 47.228 6.44704C47.2777 6.49548 47.3275 6.64083 47.3275 6.7377L47.5265 6.93139C47.8249 6.93139 48.0736 7.3189 48.372 8.04543C48.6704 8.77195 48.7699 9.30473 48.7699 9.5469C48.7699 9.83752 48.8196 9.93441 48.9688 9.93441V10.1282L49.3668 10.9515C49.2175 10.9515 49.3668 11.1453 49.7647 11.5812V12.2108C49.9139 12.3561 49.9636 12.9374 49.9636 14.0514C49.9636 15.117 49.9636 16.0372 49.9636 16.6669C49.5657 18.4106 48.9191 20.2511 48.0735 22.14C47.5264 23.6415 46.7307 25.1914 45.7857 26.7898C45.0893 28.5335 44.2438 30.5193 43.1993 32.6989C42.1548 34.8785 41.0606 37.1065 39.9663 39.3829C39.27 41.1266 38.5239 42.9187 37.6784 44.6624C36.8328 46.406 35.9376 48.1013 34.9926 49.7481C34.9926 49.8934 34.7439 50.523 34.2465 51.6855C33.7491 52.8479 33.1522 54.1073 32.4559 55.4634C31.6103 57.1102 30.7648 58.8539 29.969 60.7429C29.8198 60.7429 29.6208 61.1304 29.3224 61.9538C29.0239 62.6319 28.9742 62.9709 29.1235 62.9709C29.4219 62.9709 29.6208 62.9224 29.8695 62.874C30.0685 62.8256 30.4664 62.7287 31.0135 62.5834C36.7334 60.6944 42.4035 59.2898 48.1233 58.3211C48.4217 58.1758 48.7201 58.1274 49.0683 58.1274C49.4165 58.1274 49.715 58.0789 50.0134 57.9336C51.1076 57.643 51.9033 57.5461 52.3013 57.5461C52.5997 57.4008 52.8485 57.3524 53.1469 57.3524C53.2961 56.9649 53.6442 55.9478 54.2908 54.3978C54.9374 52.8479 55.3851 51.9277 55.6338 51.6371C55.6338 51.3464 55.9322 50.6684 56.4793 49.6028C57.1756 48.1013 57.9217 46.4545 58.6677 44.614C59.4138 42.7734 60.1599 41.3204 60.8563 40.2548C61.1547 39.5767 61.4034 38.947 61.7018 38.4142C62.0002 37.8815 62.1992 37.4455 62.3484 37.2034C62.4976 37.0581 62.597 36.9128 62.6468 36.8159C62.6965 36.6706 62.796 36.5253 62.9452 36.4284V36.041C63.2437 35.7504 63.5918 35.0722 63.9897 34.0067C64.2881 33.716 64.5369 33.3286 64.8353 32.7958C64.8353 32.6505 64.885 32.5052 65.0342 32.4083L65.6808 31.1974C66.3772 30.1319 67.2227 29.1147 68.1677 28.2429C69.1625 27.371 69.7594 26.9836 70.0578 27.1289C70.207 26.9836 70.3561 26.9351 70.4556 26.9351C70.6048 26.9351 70.7541 26.8867 70.8535 26.7414H73.3404L73.5394 26.9351V27.1289H73.3404C73.6389 27.4195 73.9871 27.4195 74.385 27.1289C74.5342 26.9836 74.8823 26.9351 75.4294 26.9351C76.4242 26.9351 77.021 27.0805 77.3195 27.3226C77.7174 27.3226 77.9661 27.5163 77.9661 27.9523C77.9661 28.7757 78.1153 28.7757 78.364 27.9523C78.5132 27.6616 78.7619 27.6132 79.2095 27.7585C80.0551 28.0491 80.9504 28.4366 81.9451 28.9694C82.2435 29.26 82.4425 29.3569 82.5917 29.3569C83.4373 29.7444 83.8352 30.2287 83.8352 30.7615C83.9844 31.0521 83.9844 31.4881 83.8352 32.1662C83.686 32.8442 83.2881 34.152 82.5917 36.041C82.0446 37.5425 81.597 38.6565 81.3483 39.4798C81.0499 40.3032 80.7016 41.0298 80.3037 41.7079C80.3037 42.0953 80.0053 42.725 79.4582 43.5484C79.1598 44.3718 78.7619 45.2436 78.2148 46.1639C77.9163 47.1326 77.6677 47.7138 77.3692 48.0044V48.1982L76.9713 49.0215L76.7724 49.4091C76.9216 49.4091 76.3744 50.5715 75.0813 52.8479C74.7828 53.3807 74.6833 53.7198 74.6833 53.8651C74.5341 54.1557 74.4844 54.3494 74.4844 54.4947C74.7828 54.7854 75.0315 54.4947 75.3299 53.6713C75.6284 53.2838 75.9766 52.6057 76.3745 51.7339C76.7724 50.8621 77.2697 49.8934 77.8168 48.8763C78.364 47.8591 79.0106 46.5514 79.7069 44.9046C79.8561 44.7593 80.1048 44.2749 80.453 43.4999C80.8011 42.6765 81.1494 41.8532 81.4975 40.9813C81.8457 40.1095 82.1938 39.2376 82.5419 38.3658C82.8901 37.494 83.0393 36.9612 83.0393 36.8643C83.1885 36.1862 83.3378 35.5082 83.4372 34.8301C83.5865 34.152 83.6362 33.8613 83.6362 34.0067C83.7854 34.0067 83.9346 33.8613 84.1335 33.5223C84.3325 33.1833 84.432 32.9411 84.432 32.7958C84.1336 31.8271 84.2828 31.3911 84.8299 31.3911C85.3771 31.3911 85.5263 32.2145 85.2279 33.8129C85.2279 35.0238 84.3823 37.5909 82.741 41.5141L81.6964 43.5484C81.5472 43.6937 81.4975 43.839 81.4975 43.9359L81.2985 44.1296C81.1493 44.4202 81.0001 44.8077 80.8011 45.3405C80.6022 45.8733 80.4032 46.2123 80.3037 46.3576L80.1048 46.7451C80.1048 46.8904 80.055 47.0357 79.9058 47.1326V47.7622C79.6074 47.7622 79.508 47.8107 79.508 47.956L79.309 48.3434C79.309 48.6341 79.2096 48.9731 79.0106 49.4575C78.8117 49.9418 78.563 50.184 78.2646 50.184V50.3778C78.2646 50.6684 78.2147 50.8621 78.0655 51.0074C77.9163 51.1527 77.8666 51.298 77.8666 51.3949C77.8666 51.6855 77.8168 51.8793 77.6676 52.0246C77.5184 52.1699 77.4687 52.3151 77.4687 52.412V52.6058C77.4687 52.8964 77.3195 52.9933 77.0708 52.9933C77.0708 53.1386 77.0211 53.3807 76.8719 53.8166C76.7227 53.9619 76.6728 54.1073 76.6728 54.2041V54.3978C76.8221 54.3978 77.1702 54.3978 77.8168 54.3978C78.4634 54.3978 79.1598 54.3494 80.0054 54.2041H82.9399C85.576 54.2041 87.7147 54.3978 89.4058 54.8338C92.7382 55.8993 94.678 56.7227 95.2251 57.2555C95.5235 57.5461 95.7722 57.643 96.0706 57.643C96.2198 57.7883 96.3691 57.8852 96.568 57.9336C96.767 57.9821 96.9659 58.1758 97.0654 58.418C97.9109 58.8055 98.2592 59.0477 98.1099 59.0477L98.3088 59.4351L98.9555 60.0648L99.3534 60.2585L98.9555 61.0819C98.5576 61.9053 98.5576 62.0991 98.9555 61.7116C98.9555 61.5663 99.1544 61.421 99.6021 61.3241C99.9005 61.0335 100 61.1304 100 61.5178C100 61.9053 99.6021 62.5834 98.856 63.4552C98.1099 64.3271 97.5628 64.7145 97.3141 64.5692C97.0157 64.5692 96.8168 64.6177 96.6676 64.763C96.3692 65.0536 96.1204 65.1505 95.8219 65.1505C95.5235 64.8599 95.4241 64.8599 95.4241 65.1505H95.2251C95.2251 65.2958 94.7278 65.3442 93.7828 65.3442C92.9372 65.3442 92.5393 65.3926 92.5393 65.5379H91.2959C90.9974 65.5379 90.6492 65.5864 90.1519 65.6348C89.6545 65.6833 89.3063 65.7317 89.0079 65.7317C88.7094 65.7317 88.3115 65.7801 87.7644 65.8286C87.2173 65.877 86.72 65.9254 86.3221 65.9254C83.5367 66.0707 81.7461 66.2645 80.9006 66.5551H78.2148C77.9163 66.5551 77.7174 66.6035 77.5681 66.652C77.4189 66.7004 77.22 66.7488 76.9215 66.7488C76.6231 66.7488 76.4242 66.7488 76.275 66.7488C75.9766 66.7488 75.4294 66.7972 74.4844 66.9426C73.5891 67.0879 73.042 67.2332 72.9425 67.3301H72.296C70.9033 67.4754 70.008 67.9597 69.6101 68.7347C69.6101 69.0253 69.4608 69.2675 69.2122 69.5581C69.2122 69.7034 69.1625 69.8487 69.0132 69.9456C69.0132 70.2362 68.9636 70.4783 68.8143 70.7689C68.6651 70.9142 68.6153 71.0596 68.6153 71.1564L68.4164 71.3501C68.4164 71.4954 68.2672 71.6892 68.0185 71.9798C68.0185 72.1251 67.9688 72.222 67.919 72.2704C67.8693 72.3189 67.8196 72.4641 67.8196 72.561L67.6206 73.1907C67.4713 73.4813 67.3719 73.7235 67.3222 74.0141C67.2725 74.3047 67.0735 74.6438 66.8248 75.0313L66.4269 75.8546C66.4269 76.1452 66.2279 76.6296 65.7803 77.3561C65.3824 78.0826 65.084 78.4701 64.9348 78.4701C64.7855 78.6154 64.7357 78.7607 64.7357 78.8576C64.7357 79.0029 64.6363 79.3904 64.4374 80.0685C64.2384 80.7466 64.0395 81.0372 63.94 80.8919C63.6416 80.8919 63.5421 80.9403 63.5421 80.9887C63.5421 81.0372 63.5918 81.0856 63.741 81.0856C63.8902 81.231 63.8902 81.3762 63.741 81.4731L63.3432 81.8606C63.3432 82.1512 63.2934 82.3449 63.1441 82.4902C62.9949 82.6355 62.9452 82.8293 62.9452 83.1199L62.7462 83.3137C62.597 83.459 62.5473 83.6042 62.5473 83.7011V84.0886C62.2489 84.3792 62.1494 84.6214 62.1494 84.912L61.7515 85.7354C61.453 85.8807 61.3537 86.0744 61.3537 86.365C61.3537 86.6556 61.3038 86.8494 61.1546 86.9947C61.1546 87.14 61.1049 87.2853 60.9557 87.3822C60.9557 87.2369 60.906 87.2369 60.8563 87.3822C60.8065 87.5275 60.7567 87.6728 60.7567 87.7697C60.7567 88.0603 60.707 88.2056 60.6572 88.254C60.6075 88.3025 60.5578 88.4477 60.5578 88.5446C60.4086 88.5446 60.2593 88.6899 60.1599 88.9321V89.1259C60.0107 88.9806 59.961 89.0774 59.961 89.3196V89.5133C59.961 89.8039 59.9112 89.9008 59.7619 89.9008C59.7619 90.1914 59.6128 90.4336 59.3641 90.7242L59.1651 91.1117V91.3055L58.7672 92.1288C58.4688 92.6616 58.3694 93.0006 58.3694 93.146V93.3397C58.3694 93.485 58.3196 93.6303 58.1704 93.7272C57.8719 94.0178 57.7724 94.3569 57.7724 94.7443C57.474 95.0349 57.3746 95.2771 57.3746 95.5677C57.0762 95.5677 56.9767 95.7615 56.9767 96.1974L56.7777 96.5849C56.7777 96.7302 56.728 96.9724 56.5788 97.3114C56.4295 97.6505 56.3799 97.8926 56.3799 98.038C56.2306 97.8926 56.1808 97.9895 56.1808 98.2316C56.1808 98.7644 56.0316 99.0551 55.7829 99.0551C55.6337 99.0551 55.584 99.2003 55.584 99.4425C55.584 99.7331 55.5343 99.9269 55.3851 100.072L55.1861 100.46V100.653C54.8876 100.653 54.7881 100.992 54.7881 101.671L54.5892 102.058C54.5892 102.203 54.5395 102.3 54.4898 102.349C54.4401 102.397 54.3903 102.542 54.3903 102.639L54.1913 102.833V103.22C54.0421 103.608 53.8929 103.85 53.7934 103.85L53.5945 104.044V104.238C53.4453 104.238 53.4453 104.286 53.5945 104.431H53.3956V104.819L53.1966 105.206L52.9977 105.594C52.9977 105.884 52.9478 106.078 52.7986 106.223C52.6494 106.514 52.5003 106.853 52.4008 107.241V107.434V107.822L52.2018 108.016C52.0526 108.161 52.0029 108.306 52.0029 108.403V108.597C51.8537 108.597 51.8039 108.791 51.8039 109.226C51.5054 109.517 51.4061 109.905 51.4061 110.437C51.2569 110.583 51.1573 110.728 51.1076 110.922C51.0579 111.115 50.9086 111.309 50.8091 111.406C50.8091 111.551 50.7594 111.697 50.7097 111.793C50.6599 111.939 50.6102 112.084 50.6102 112.181V112.568C50.461 112.956 50.3118 113.198 50.2123 113.198C50.0631 113.343 50.0134 113.682 50.0134 114.215C49.8642 114.361 49.8144 114.506 49.8144 114.603C49.5159 114.893 49.4166 115.087 49.4166 115.232C49.4166 115.523 49.3667 115.62 49.2175 115.62V116.007C49.0683 116.153 49.0186 116.395 49.0186 116.831L48.8196 117.218L48.4218 118.235L48.0239 119.446L47.8248 119.834C47.8248 119.979 47.5264 120.851 46.9793 122.449L46.1338 124.871C45.9846 125.016 45.9349 125.21 45.9349 125.501C45.7857 125.646 45.4375 126.469 44.8904 127.922L44.0448 130.15V130.538C44.0448 130.829 43.995 131.022 43.8458 131.264C43.6966 131.458 43.6469 131.652 43.6469 131.749C43.4977 131.894 43.3982 132.136 43.3484 132.572C43.2987 132.96 43.1495 133.299 43.0501 133.589C43.0501 133.977 42.8511 134.655 42.4035 135.624C42.2542 136.156 42.105 136.689 42.0055 137.27C41.8563 137.803 41.7071 138.288 41.6076 138.675C41.3092 139.886 40.9611 141.291 40.5632 142.937C40.1653 144.584 39.8171 145.843 39.5186 146.812C38.9715 148.701 38.4742 149.864 38.0763 150.251C38.0763 150.396 38.0266 150.445 37.9768 150.445C37.9271 150.445 37.8773 150.396 37.8773 150.251C37.728 150.106 37.5789 150.106 37.4794 150.251C37.181 150.542 36.982 150.59 36.8328 150.445C36.6836 150.299 36.6338 150.299 36.6338 150.445C36.3354 151.123 36.0867 151.171 35.7883 150.639C35.6391 150.493 35.4898 150.493 35.3904 150.639C35.0919 150.639 34.694 150.154 34.1469 149.234C33.749 148.168 33.4009 146.764 33.2019 145.068C33.003 143.373 32.9533 141.048 33.1025 138.045C33.1025 136.011 33.1522 134.51 33.2019 133.492C33.2517 132.475 33.3512 131.022 33.5004 129.133C33.6496 128.601 33.749 127.874 33.7988 127.002C33.8485 126.13 33.8982 125.404 33.8982 124.871C34.0474 124.338 34.0972 123.902 34.0972 123.66C34.0972 123.369 34.1469 123.03 34.2961 122.643C34.2961 121.965 34.346 121.481 34.4952 121.238C34.4952 120.851 34.5449 120.463 34.5946 120.124C34.6444 119.785 34.7438 119.01 34.893 117.799C36.2856 110.873 37.927 104.141 39.9166 97.5051C41.8563 90.8695 43.9951 84.3308 46.3825 77.792C46.9296 76.7265 47.3772 75.6125 47.6259 74.5469C47.7751 74.0141 47.9244 73.5298 48.0239 73.1423L47.6259 72.9485C46.7804 73.336 46.0841 73.6266 45.537 73.7719C44.9899 74.0625 44.194 74.4016 43.1495 74.7891C42.105 75.1766 41.1102 75.5156 40.1155 75.8062C39.0212 76.1937 38.0762 76.5811 37.2804 76.9202C36.5344 77.2592 36.0867 77.4045 35.9375 77.4045C35.7883 77.4045 35.4401 77.5499 34.893 77.792L34.2465 77.9858L33.4008 78.3732C33.4008 78.5185 33.1024 78.6638 32.5553 78.8576C32.0082 79.0513 31.6601 79.1482 31.5109 79.1482C31.5109 79.5357 31.2124 79.7779 30.6653 79.7779C30.516 79.7779 30.1679 79.9232 29.6208 80.1654L28.7753 80.5528H28.5763C28.4271 80.5528 28.2778 80.6013 28.1784 80.7466C27.8799 81.0372 27.3329 81.2309 26.3879 81.4731C25.4926 81.6668 24.8957 81.7637 24.5973 81.7637C24.2988 81.7637 23.7518 81.909 22.9062 82.1512H21.2151C21.0658 82.2965 20.8171 82.2965 20.469 82.1512C20.1208 82.0059 19.8224 81.8121 19.524 81.5215C19.3748 81.3762 19.2256 81.4731 19.1261 81.7153C18.8277 82.2481 18.7282 82.3934 18.7282 82.1028V81.909H18.9272H18.5293L18.3303 82.1028C18.4796 82.2481 18.4297 82.3449 18.2308 82.3934C18.0318 82.4418 17.8329 82.4418 17.7334 82.2965C17.7334 82.1512 17.5843 82.0543 17.3356 82.0059C17.0372 81.9574 16.8382 81.909 16.689 81.909C16.3905 81.6184 16.291 81.6184 16.291 81.909H15.4455C15.0476 81.7637 14.7492 81.7153 14.6 81.7153C13.9037 81.7153 13.5555 81.6668 13.5555 81.5215V81.3278C13.4062 81.3278 13.257 81.2794 13.1575 81.1341H11.9141C11.6157 80.8435 11.2676 80.7466 10.8697 80.7466C10.1733 80.7466 9.22821 80.5044 8.0345 80.02C6.84079 79.5357 6.14451 79.0513 5.84608 78.5186C5.84608 78.228 5.69684 78.1311 5.44815 78.1311V77.7436C5.44815 77.5983 5.24917 77.4045 4.80153 77.1139C4.40363 76.8233 4.10523 76.7265 3.95601 76.7265C3.4089 76.5812 2.86183 76.1452 2.26497 75.4187C1.71785 74.6922 1.27021 73.8204 1.02152 72.9001C-0.172187 72.0767 -0.172187 70.4783 0.275455 68.5894ZM7.98483 65.2957L8.18374 65.1021C8.18374 64.9567 8.23345 64.8598 8.28319 64.8114C8.33293 64.763 8.38276 64.6661 8.38276 64.5208C8.53197 64.1333 9.02928 62.874 9.92456 60.8882C10.8198 58.8539 11.8147 56.6259 12.8592 54.2041C13.9037 51.7824 14.8486 49.5059 15.7937 47.4232C16.6889 45.3405 17.2361 44.1296 17.3356 43.8874C17.3356 43.7421 17.4848 43.3546 17.833 42.6766C18.1811 41.9985 18.4795 41.1751 18.7779 40.2548C19.1758 39.4314 19.5241 38.7533 19.8225 38.1236C20.1209 37.494 20.3198 37.0581 20.469 36.8159L20.668 36.4284C20.5188 36.4284 19.6234 38.1236 17.9821 41.5141L17.1366 43.1609L16.9377 43.5484C15.3958 46.503 13.9534 49.5059 12.5607 52.4604C11.168 55.415 9.92459 58.4664 8.83035 61.6147C8.53193 62.6803 8.33297 63.6006 8.08428 64.3755C7.88533 64.9567 7.83562 65.2957 7.98483 65.2957ZM8.18374 60.4522C8.18374 60.5975 8.28326 60.4038 8.48221 59.8226C8.68116 59.2898 9.32776 57.7399 10.4717 55.1728C11.1681 53.6714 11.7648 52.412 12.2622 51.298C12.7596 50.2325 13.0581 49.6028 13.2073 49.4575C13.2073 49.1669 13.3566 48.7309 13.6052 48.0528C13.9037 47.3748 14.1025 46.8904 14.2517 46.6482L14.6497 45.8248C14.3512 46.1155 14.1026 46.6482 13.8041 47.4716C13.4062 48.1497 12.8591 49.2153 12.2622 50.6199C11.6156 52.0246 11.0189 53.4776 10.3723 54.8822C9.72569 56.2868 9.22826 57.5461 8.83035 58.6602C8.38271 59.7257 8.18374 60.3069 8.18374 60.4522ZM14.8487 67.1363L15.0476 66.9426L15.2465 66.5551C15.2465 66.1676 15.545 65.2958 16.0921 64.0364C16.6393 62.7287 17.236 61.3725 17.8826 59.871C18.5292 58.3695 19.1261 57.0134 19.7727 55.7056C20.4193 54.3979 20.8669 53.5744 21.1156 53.187C21.414 52.5089 21.6627 51.8308 21.9611 51.1527C22.2595 50.4746 22.359 49.9903 22.359 49.7481C22.5083 49.4575 22.6575 49.2153 22.757 48.9247C22.9062 48.6341 23.0554 48.3919 23.1549 48.1013C23.8512 46.5998 24.2491 45.728 24.3984 45.4858C24.5476 45.3405 24.5973 45.1467 24.5973 44.8561L24.7963 44.4686C24.7963 44.3233 24.8957 44.0812 25.0946 43.6453C25.2936 43.2578 25.4925 43.0156 25.592 43.0156V42.8219V42.6281H25.791C25.791 42.3375 25.8407 42.0953 25.9899 41.8047C25.8407 41.6594 25.4925 42.1922 24.9454 43.3062C24.3983 44.4687 23.4036 46.406 22.0109 49.07C21.0161 51.2496 20.0712 53.3807 19.0764 55.5603C18.0817 57.7399 17.2859 59.6773 16.5895 61.3241C15.8932 63.0193 15.3958 64.4239 15.0476 65.4895C14.7989 66.6035 14.6995 67.1363 14.8487 67.1363ZM22.1601 65.1021L22.359 64.9083H22.757C23.0554 64.763 23.2046 64.6177 23.2544 64.4239C23.3041 64.2302 23.5528 63.6006 24.0004 62.4865C24.2989 61.8084 24.6968 60.8881 25.2439 59.7257C25.791 58.5633 26.3381 57.4493 26.9349 56.3837C27.3328 55.3182 27.8303 54.1557 28.3774 52.9448C28.9245 51.7339 29.3721 50.7652 29.6208 50.0872C29.9193 49.4091 30.2176 48.6825 30.5658 47.956C30.914 47.2295 31.2125 46.5514 31.5109 46.0186C31.8093 45.4858 31.9087 45.1468 31.9087 45.0015C32.0579 44.8562 32.1077 44.7108 32.1077 44.614L33.3512 41.7563C33.7491 41.0782 34.0972 40.3516 34.3956 39.6251C34.694 38.8986 34.893 38.3658 35.0422 38.1236C35.1914 37.833 35.3407 37.5424 35.4401 37.2034C35.5894 36.8643 35.7386 36.5738 35.8381 36.2831L36.236 35.4597C34.5449 38.7049 33.1522 41.4657 32.0579 43.6937C30.9637 45.9217 29.8198 48.1982 28.7255 50.4746C27.6313 52.7995 26.6863 54.5432 26.0397 55.754C25.045 57.7883 24.1496 59.8711 23.2046 61.9538C22.4088 64.0849 22.0109 65.1021 22.1601 65.1021ZM26.3381 63.6974C26.4873 63.5521 26.736 63.0678 27.1836 62.1959C27.5815 61.3241 28.079 60.3554 28.6261 59.2414C29.1732 58.1758 29.6705 57.0618 30.0684 55.8994C30.4663 54.7369 30.8145 54.0588 31.113 53.7682C31.2622 53.3807 31.4114 52.8964 31.6103 52.3636C31.8093 51.8308 32.058 51.298 32.3564 50.7168C33.0527 49.2153 33.5998 48.0529 34.0475 47.181C34.4454 46.3092 34.7936 45.5827 35.092 45.0499L35.4899 44.2265C35.4899 44.3718 35.7883 43.5968 36.3355 41.9985C37.181 40.3517 37.6783 39.2861 37.7778 38.7533C38.0762 38.2205 38.2752 37.7362 38.4244 37.3487C37.181 39.7704 35.9872 42.1437 34.893 44.4686C33.8982 46.3576 32.9532 48.3435 31.9585 50.3778C30.9637 52.412 30.1679 54.1073 29.4716 55.4634C28.7753 57.2071 27.9794 59.0476 27.0841 60.9366C26.1889 62.8256 25.7413 63.8427 25.7413 63.988C25.7413 64.1333 25.7909 64.1818 25.9402 64.1818C26.0396 64.0849 26.1889 63.988 26.3381 63.6974ZM34.0475 146.957C34.0475 147.2 34.0475 147.2 34.0475 146.957C34.0475 146.667 34.0973 145.989 34.2465 144.923C34.2465 144.245 34.2962 143.422 34.3459 142.405C34.3957 141.387 34.4454 140.564 34.4454 139.886C34.5946 139.208 34.6941 138.578 34.7439 137.948C34.7936 137.319 34.8433 136.883 34.8433 136.641C34.8433 136.35 34.893 136.011 34.9428 135.527C34.9925 135.042 35.0422 134.606 35.0422 134.219C35.3406 133.153 35.4401 132.039 35.4401 130.974C35.7386 129.618 35.8381 128.746 35.8381 128.358C35.8381 128.068 35.8878 127.922 35.9375 127.874C35.9873 127.826 36.037 127.729 36.037 127.583L36.236 126.954C36.236 126.663 36.2857 126.372 36.3355 126.033C36.3852 125.694 36.4349 125.404 36.4349 125.113C36.5841 124.435 36.6836 123.951 36.7334 123.612C36.7831 123.273 36.8328 122.982 36.8328 122.691C36.982 122.401 37.0317 122.207 37.0317 122.062V121.674C37.0317 121.529 37.181 121.045 37.4297 120.27C37.4297 119.979 37.4794 119.592 37.6286 119.059C37.7778 118.526 37.927 117.993 38.0265 117.412C38.3249 116.346 38.4741 115.571 38.5239 115.184C38.5736 114.796 38.6233 114.506 38.6233 114.361C38.9218 113.828 39.0213 113.198 39.0213 112.52C39.4192 111.842 39.5684 111.503 39.4192 111.503C39.4192 111.212 39.5684 110.534 39.8171 109.469C40.1155 108.403 40.3145 107.725 40.4637 107.434C40.4637 107.144 40.6128 106.611 40.8615 105.788L41.2595 104.141C41.4087 103.995 41.4585 103.85 41.4585 103.753C41.4585 103.22 41.6076 102.785 41.8563 102.542L42.0553 102.349V101.719C42.3537 101.041 42.6024 100.218 42.9008 99.2973C43.1993 98.3285 43.3982 97.7473 43.5475 97.4567C43.5475 97.1661 43.5971 97.0692 43.7464 97.0692C43.7464 96.5365 43.9453 95.8583 44.393 95.0349C44.393 94.8896 44.4427 94.7928 44.4924 94.7443C44.5422 94.6959 44.5919 94.599 44.5919 94.4537C44.4427 94.3084 44.6416 93.485 45.0893 92.032C45.5866 90.5305 46.1835 89.0774 46.8799 87.5759C47.0291 87.1884 47.2777 86.4135 47.7254 85.2511C48.1233 84.0886 48.6207 82.8777 49.1679 81.6184C49.715 80.3107 50.4113 78.6639 51.2568 76.6296C51.406 76.4843 51.7541 75.6609 52.3013 74.2078C52.8484 72.7063 53.0473 71.9798 52.9479 71.9798C52.6494 71.6892 52.4008 71.9314 52.1023 72.6095C52.1023 72.7548 51.9034 73.2391 51.605 74.0141C51.2568 74.8375 50.9584 75.7577 50.66 76.8718C50.2621 77.9373 49.8642 78.8576 49.516 79.6326C49.1678 80.3591 49.0186 80.8435 49.0186 80.9403C48.8694 81.0856 48.8196 81.231 48.8196 81.3278V81.5215C48.8196 81.6668 48.7699 81.8122 48.6207 81.909C48.6207 82.1996 48.571 82.2965 48.4218 82.2965C48.4218 82.5871 48.372 82.8293 48.2228 83.1199C47.8249 84.0886 47.4768 85.1542 47.1783 86.365C46.7804 86.8978 46.5317 87.4306 46.5317 88.0118L45.8851 89.2227C45.8851 89.5133 45.6862 90.0945 45.3877 90.9664C45.0396 91.8382 44.7909 92.4195 44.6417 92.7101V93.0975C44.6417 93.3881 44.4427 94.0662 43.995 95.2287C43.5971 96.3911 43.2987 97.0208 43.1495 97.1661V97.3598C43.0003 97.3598 42.9008 97.5536 42.851 97.9895C42.8013 98.3769 42.7516 98.6676 42.7516 98.8129C42.6024 98.9582 42.5527 99.1035 42.5527 99.2003V99.3941L42.3537 99.7816C42.3537 100.072 42.304 100.218 42.2542 100.266C42.2045 100.314 42.1548 100.46 42.1548 100.557C42.0056 100.702 41.9559 100.847 41.9559 100.944C41.9559 101.089 41.9061 101.283 41.7568 101.574C41.7568 101.961 41.7071 102.203 41.5579 102.203V102.397V102.785C41.5579 103.075 41.5081 103.269 41.3589 103.414C41.0605 104.238 40.9611 104.77 40.9611 105.061C40.8119 105.206 40.7621 105.303 40.7621 105.352C40.7621 105.4 40.7124 105.545 40.5632 105.642C40.5632 106.03 40.5134 106.272 40.3642 106.272C40.3642 106.659 40.3145 106.902 40.1652 106.902V107.095V107.289C40.1652 107.434 40.1156 107.483 39.9663 107.483V108.306C39.8171 108.306 39.7673 108.452 39.7673 108.694V108.887C39.7673 109.033 39.7176 109.081 39.5684 109.081C39.4192 109.226 39.4192 109.372 39.5684 109.469C39.5684 109.759 39.5186 109.953 39.3694 110.098C39.2202 110.244 39.1705 110.583 39.1705 111.115C39.0213 111.406 38.9218 111.6 38.872 111.842C38.8223 112.036 38.6731 112.278 38.5737 112.568C38.4244 112.956 38.4244 113.198 38.5737 113.198C38.5737 113.343 38.5238 113.489 38.3746 113.586C38.2254 113.731 38.2254 113.925 38.3746 114.215V114.409C38.2254 114.409 38.1757 114.554 38.1757 114.796C38.1757 115.184 38.126 115.475 37.9768 115.62C37.8276 115.91 37.7778 116.056 37.7778 116.104C37.7778 116.153 37.7281 116.346 37.5789 116.589V116.782C37.5789 116.928 37.5291 117.073 37.3799 117.17V117.799C37.6783 118.09 37.5789 118.429 37.181 118.817V119.204C37.0318 119.349 36.9821 119.543 36.9821 119.834L36.783 120.221V120.415V120.802C36.783 121.19 36.7334 121.481 36.5841 121.626L36.3851 122.013V122.207C36.3851 122.352 36.3851 122.498 36.3851 122.595C36.3851 123.127 36.3354 123.563 36.1862 123.805C35.8878 124.871 35.7883 125.501 35.7883 125.646C35.7883 125.791 35.7386 125.985 35.6888 126.276C35.6391 126.566 35.5894 126.808 35.5894 127.099C35.5894 127.777 35.5397 128.261 35.4899 128.504C35.4402 128.794 35.3904 128.988 35.3904 129.133C35.2411 129.133 35.1915 129.327 35.1915 129.763C35.1915 130.732 34.9925 132.282 34.5448 134.413C34.5448 135.091 34.4951 135.72 34.4454 136.35C34.3956 136.98 34.3459 137.416 34.3459 137.658C34.3459 137.948 34.2962 138.336 34.2465 138.869C34.1967 139.402 34.1469 139.934 34.1469 140.516C33.9977 141.581 33.948 142.84 33.948 144.148C33.8485 145.456 33.8982 146.376 34.0475 146.957ZM39.2203 3.58942C39.2203 3.29881 39.3694 3.20191 39.6181 3.20191L40.016 2.81441L39.6181 3.44409C39.3694 3.68626 39.2203 3.73472 39.2203 3.58942ZM58.8668 56.3837L59.2646 56.19C59.4138 56.19 59.563 56.1415 59.6625 55.9962H59.8615L60.508 54.7853C60.6572 54.3979 60.8064 53.962 61.0054 53.4776C61.2043 52.9933 61.453 52.5089 61.7515 51.9761C62.0499 51.4433 62.4976 50.3777 63.1939 48.8278C63.8903 47.2779 64.6363 45.6311 65.4818 43.9359C66.3274 42.2406 67.1232 40.6907 67.8693 39.2861C68.6153 37.8815 69.0629 37.1065 69.2122 36.9612C69.3614 36.8159 69.4112 36.6706 69.4112 36.5737L70.2567 34.5394C70.8038 33.1832 71.152 32.4567 71.3012 32.3114V31.924L70.4556 32.7474C70.3064 32.7474 70.1573 32.8927 70.0578 33.1349V33.3285L69.4112 33.9582V34.152C69.0133 34.5395 68.7646 34.8301 68.7646 34.9754C68.4661 35.7988 68.2175 36.1862 67.919 36.1862V36.5737L67.2724 37.5909C67.1232 37.7362 67.1232 37.8815 67.2724 37.9784C67.1232 38.1237 67.0735 38.2689 67.0735 38.3658C66.9243 38.5111 66.7253 38.8986 66.4269 39.5767C65.8798 40.5454 65.1835 41.9016 64.3379 43.7421C63.4924 45.5826 62.6468 47.3748 61.851 49.2153C61.0552 51.0558 60.3091 52.6542 59.6625 54.1072C59.1651 55.4634 58.8668 56.2384 58.8668 56.3837ZM65.9295 73.6266C65.9295 73.336 65.9792 73.2391 66.1284 73.2391L66.3274 73.0454C66.3274 72.7548 66.3771 72.5611 66.5264 72.4157L66.7253 72.222V71.8345C66.7253 71.5439 66.7751 71.447 66.9243 71.447C67.0735 71.3017 67.1232 71.1564 67.1232 71.0595C67.1232 70.9142 67.173 70.7205 67.3222 70.4299C67.3222 70.1393 67.3719 69.8971 67.5211 69.6065C67.3719 69.6065 67.3222 69.7518 67.3222 69.994C67.173 70.1393 66.974 70.4299 66.6756 70.9143C66.3772 71.3986 66.2777 71.7861 66.2777 72.0282L65.8797 72.4157V73.0454C65.8797 73.4328 65.7305 73.675 65.4818 73.675V74.0626C65.4818 74.2079 65.5316 74.2079 65.6808 74.0626C65.8798 73.9172 65.9295 73.7719 65.9295 73.6266ZM78.6624 40.3516L79.9058 37.9299C80.2042 37.1065 80.4032 36.5738 80.5524 36.2831C80.7016 35.9925 80.8509 35.7503 80.9504 35.4597V35.266L81.1493 34.8785C81.2985 34.491 81.2985 34.2004 81.1493 34.0551C81.1493 33.9098 81.0001 34.0551 80.7514 34.4426C80.7514 34.7332 80.6519 35.1207 80.453 35.6535C80.254 36.1862 80.0053 36.8159 79.7069 37.494C79.309 38.7049 78.9609 39.4798 78.7619 39.8189C78.563 40.1579 78.5131 40.3516 78.6624 40.3516Z" fill="#F6828A"/>
</svg>
