<svg width="283" height="123" viewBox="0 0 283 123" fill="none" xmlns="http://www.w3.org/2000/svg">
<path d="M110.169 1.20588C89.2164 4.61553 78.5736 7.84573 63.9398 15.2931C50.47 22.2021 41.2408 29.2009 30.6811 40.5066C15.9642 56.2089 7.89893 71.2832 2.74384 92.9972C0.914613 100.534 0.24944 105.739 0.166293 112.289L0 121.261L36.834 121.531L73.5848 121.71V115.25C73.668 89.6773 87.5535 68.7708 109.005 61.9515C114.992 60.0672 127.796 59.798 134.282 61.5028C141.017 63.2974 150.163 68.053 155.9 72.8085C160.14 76.3079 170.035 88.0622 170.035 89.5876C170.035 89.8568 167.291 90.2157 163.882 90.4849C149.498 91.4719 139.52 102.957 140.268 117.493L140.518 122.159L210.278 122.428C261.081 122.518 280.287 122.338 281.119 121.62C282.948 120.005 282.616 107.802 280.62 100.893C276.463 86.2677 263.824 79.897 251.269 86.0882L246.53 88.4211V82.858C246.447 70.5653 242.123 57.0165 235.721 49.5691C228.487 41.1347 216.098 37.3661 205.788 40.4168L201.215 41.7628L199.635 39.3401C196.559 34.764 185.417 23.3686 180.096 19.5103C167.457 10.2684 150.828 3.71826 134.698 1.56479C127.63 0.667517 114.659 0.398334 110.169 1.20588ZM144.925 5.87172C157.563 9.28137 170.7 16.1007 180.096 24.0864C189.242 31.803 198.887 43.5573 196.725 44.3649C196.143 44.5443 194.397 45.98 192.817 47.4156L189.99 50.1074L186.082 46.6081C168.123 30.816 148.583 22.1124 124.969 19.3309C104.848 17.0877 82.6478 22.2919 65.1038 33.5078C39.9104 49.7485 21.7844 80.3456 18.8743 111.84L18.2923 118.57L11.7237 118.839C8.06523 119.018 4.82251 118.749 4.40677 118.3C3.32587 117.134 5.07195 100.983 7.15061 92.4589C15.2158 58.9905 35.2542 33.5976 65.6027 18.0747C78.7399 11.3451 94.2883 6.1409 107.176 4.16689C115.906 2.82098 137.109 3.80798 144.925 5.87172ZM125.967 22.4713C143.594 23.8172 165.878 33.8667 181.842 47.7745L187.496 52.7095L184.502 57.5548L181.426 62.4898L177.601 58.9905C162.718 45.6211 146.588 39.7888 124.72 39.8785C103.601 39.9682 83.2298 46.8772 68.2634 59.0802C54.8768 69.9372 44.5666 89.0492 41.9891 107.802C41.407 111.75 40.825 115.878 40.6587 116.955C40.3261 118.929 39.9936 119.018 31.5126 119.018H22.6159L23.1979 113.365C25.0271 96.1377 30.1822 80.6148 38.7464 66.6173C54.96 40.2374 79.4051 24.5351 107.675 22.2021C111.583 21.8432 115.906 21.6638 117.237 21.8432C118.65 21.933 122.558 22.2021 125.967 22.4713ZM223.748 44.634C228.82 46.8772 233.725 52.6198 236.968 59.8877C240.128 67.1557 241.541 74.6928 241.791 86.7163C241.957 96.7658 242.705 97.4836 248.027 92.6383C254.845 86.5368 262.993 85.1012 268.065 89.2287C271.474 91.9205 275.465 98.1117 276.546 102.239C277.128 104.303 277.627 108.789 277.627 112.289L277.71 118.57L210.86 118.839L144.01 119.018L144.592 114.801C145.34 108.61 149.082 101.162 153.156 97.8425C159.309 92.8178 166.792 92.0102 177.269 95.3302C179.514 96.048 179.514 96.048 180.761 85.3704C183.588 62.1309 194.397 45.3519 208.199 42.7498C213.105 41.7628 219.341 42.5703 223.748 44.634ZM143.844 44.5443C154.57 47.0567 166.46 53.6068 174.026 61.1439C179.597 66.707 179.846 67.2454 179.098 69.4886C177.851 72.988 175.855 83.6656 175.855 86.806C175.855 90.126 174.941 90.126 173.111 86.806C165.878 73.5263 149.83 61.772 134.282 58.3624C115.491 54.3246 94.2883 61.5028 82.3152 76.2182C74.9983 85.1909 68.6792 103.406 68.596 115.609V119.018H56.8723H45.0655L45.6475 113.186C46.3958 105.2 49.8049 92.9075 53.297 85.819C66.6836 58.1829 92.2097 42.9292 125.136 42.8395C133.284 42.8395 138.356 43.2881 143.844 44.5443Z" fill="black"/>
</svg>
