<svg width="120" height="127" viewBox="0 0 120 127" fill="none" xmlns="http://www.w3.org/2000/svg">
<path d="M34.1713 1.83457C32.189 3.96718 32.0946 4.5765 32.661 17.88C33.0386 25.4964 33.6049 34.9409 33.8881 38.9015L34.5489 46.2133L20.578 53.6267C5.37986 61.7509 0.282349 65.9146 0.282349 70.0783C0.282349 74.9528 5.09666 76.8823 23.6931 79.7258C30.5842 80.8429 36.4369 81.8584 36.5313 82.0615C36.7201 82.2646 37.6641 88.5609 38.5137 96.0759C40.496 112.832 42.1952 120.347 44.8383 123.292C51.4462 130.807 57.7709 124.917 70.3259 99.7318L75.329 89.5765L83.3528 91.8106C94.1142 94.9588 106.386 97.193 112.239 97.193C117.903 97.193 120.451 95.0603 119.507 91.0998C118.847 87.9516 108.274 71.9062 100.345 61.7509L94.4918 54.236L98.7397 44.4869C105.442 29.2539 106.858 21.0281 103.176 17.4737C100.061 14.4272 93.9254 16.1536 80.8985 23.4654L69.3819 30.0663L57.2989 16.8644C42.1008 0.311271 38.0417 -2.32911 34.1713 1.83457ZM55.0333 21.4343C62.0188 29.0508 68.1547 35.2455 68.7211 35.2455C69.2875 35.2455 72.7802 33.2145 76.4618 30.7772C89.5831 21.9421 97.5126 18.3877 99.3061 20.3172C101.289 22.4499 100.345 26.6135 94.6806 40.7294L89.1111 54.9469L92.6039 59.4152C107.519 78.7103 114.976 90.1858 114.127 92.7246C113.277 95.1619 105.064 94.1464 88.5447 89.4749C81.2761 87.4439 74.4794 85.7174 73.441 85.6159C71.9306 85.5143 70.1371 88.4594 64.4732 100.036C57.7709 113.949 52.2958 122.581 50.219 122.581C47.7647 122.581 44.1775 106.028 43.1392 89.5765C42.7616 84.1942 42.0064 79.5227 41.44 79.218C40.8736 78.8118 35.5873 77.9994 29.5458 77.2885C15.3861 75.6637 8.96699 74.0388 6.70143 71.6016C4.90786 69.6721 4.90786 69.469 6.51263 67.641C8.77819 64.8991 20.9556 57.4857 31.3394 52.3065L40.1184 48.0412L39.552 42.862C38.5137 33.9254 37.7585 11.279 38.4193 8.43552C39.2688 4.67806 40.1184 5.28737 55.0333 21.4343Z" fill="black"/>
</svg>
