<svg width="150" height="177" viewBox="0 0 150 177" fill="none" xmlns="http://www.w3.org/2000/svg">
<path d="M48.4851 1.23063C46.9747 3.87101 49.6179 54.2414 52.3555 74.2473C53.1106 79.5281 53.5826 83.8949 53.3938 84.098C53.2994 84.3011 50.4675 80.6452 47.1635 76.1768C43.8596 71.7085 38.5733 65.4122 35.4582 62.3656C28.7559 55.8662 16.2953 46.7264 9.87622 43.7814C5.4395 41.7503 0.908386 41.141 0.908386 42.4612C0.908386 42.969 2.41876 46.0156 4.30672 49.3668C16.7673 71.5054 27.4343 100.346 34.0422 129.594C36.9685 142.593 40.5557 165.747 40.5557 171.84C40.5557 173.871 41.1221 176.004 41.7828 176.613C42.538 177.222 57.2642 175.191 88.8876 169.809C114.186 165.442 135.143 161.685 135.52 161.38C135.804 160.974 135.52 158.13 134.954 154.982C130.8 133.554 129.007 96.1828 131.084 76.7862C133.632 53.632 139.202 34.4385 147.698 19.6117C149.963 15.7527 150.058 15.245 148.547 14.6356C144.771 13.1123 126.553 26.4158 115.791 38.6022C107.295 48.2497 100.593 58.7097 95.6843 69.779C91.4363 79.2234 89.1708 81.8638 88.038 78.5126C85.5836 70.8961 72.8399 36.8758 69.8191 29.9702C60.6625 8.74556 51.4115 -3.84703 48.4851 1.23063ZM63.4944 28.3453C69.4415 41.4457 70.0079 42.969 68.6864 44.3907C67.3648 45.8125 67.0816 45.5078 66.0432 40.9379C65.1936 36.8758 64.5328 35.6571 62.9281 35.454C61.2289 35.2509 60.6625 34.1338 59.8129 29.0562C58.1137 18.5962 57.6418 17.3776 55.6594 17.3776C54.149 17.3776 53.7714 16.6667 53.7714 13.5186C53.8658 9.9642 53.8658 9.86265 55.2818 11.7922C56.1314 12.9092 59.8129 20.3226 63.4944 28.3453ZM139.674 23.9785C139.674 24.2832 138.73 26.5174 137.597 28.8531C136.559 31.1888 134.199 37.4851 132.405 42.7659L129.29 52.4134L129.762 45.3047C130.045 41.3441 130.234 36.6727 130.234 34.7432C130.234 32.0012 131.084 30.4779 134.199 27.3298C137.786 23.7754 139.674 22.6583 139.674 23.9785ZM59.9073 58.5066C64.7216 85.4182 77.4654 149.092 79.731 157.115C80.2973 159.044 79.9197 159.349 76.5214 159.755L72.7455 160.06L71.8015 155.49C71.3295 152.951 70.3855 147.366 69.7247 142.999C68.6864 135.89 68.7808 134.976 70.1967 133.859C71.6127 132.742 71.5183 132.133 68.9695 126.344C66.8928 121.774 65.4768 115.478 63.5888 103.495C62.1729 94.3549 60.4737 86.2306 59.8129 85.4182C58.5857 83.7933 56.2258 66.3262 54.7154 47.3358C52.733 21.5413 53.8658 23.9785 59.9073 58.5066ZM124.948 38.9068C124.759 40.227 124.193 46.9295 123.626 53.9367C123.154 60.9439 121.361 82.5747 119.756 102.174C118.245 121.673 117.018 140.46 117.207 143.811C117.396 147.264 117.113 150.006 116.546 150.108C115.319 150.412 115.319 146.959 116.924 94.3549C117.679 70.5914 117.868 50.1792 117.49 49.1637C116.357 46.4218 116.924 44.6954 120.511 39.9224C123.909 35.454 125.42 35.0478 124.948 38.9068ZM14.2185 50.5855C15.8233 51.601 16.7673 52.9212 16.4841 53.7336C16.2009 54.546 16.7673 56.374 17.8057 57.7957C29.2279 75.466 38.9509 106.237 45.7476 146.35C47.5411 157.216 49.3347 166.762 49.5235 167.575C49.9011 168.489 50.9395 168.793 52.6386 168.489C54.0546 168.184 58.7745 168.286 63.2113 168.59L71.2351 169.2L58.9633 171.332C45.4644 173.668 45.2756 173.668 45.2756 167.676C45.2756 161.583 41.594 139.343 38.1957 125.024C32.7206 101.667 22.7144 73.638 13.7466 56.6786C9.40423 48.5544 9.49863 47.6404 14.2185 50.5855ZM33.1926 68.7635C37.6293 75.466 38.3845 77.1924 38.0069 79.9343C37.7237 81.8638 38.2901 85.8244 39.5173 89.6834C43.482 102.885 57.453 158.841 56.981 159.755C56.6978 160.263 56.981 161.38 57.6418 162.192C58.9633 163.919 58.7745 164.122 56.037 165.036C54.149 165.645 53.9602 165.239 53.2994 156.404C52.9218 151.225 52.0723 146.045 51.4115 144.928C50.7507 143.71 49.9011 140.765 49.5235 138.226C48.2963 129.289 42.3492 104.713 38.5733 92.8316C36.4965 86.2306 32.2486 75.6691 29.2279 69.3728C22.7144 55.8662 24.3192 55.5616 33.1926 68.7635ZM105.785 66.834C103.614 75.0598 100.593 88.5663 98.9882 97.2999C98.4218 100.854 97.5722 103.393 97.1946 103.19C96.345 102.682 94.7403 89.1756 95.1179 86.1291C95.6843 80.8483 106.634 56.4755 107.295 58.7097C107.578 59.4206 106.823 62.9749 105.785 66.834ZM111.826 101.362C111.449 116.087 110.882 128.07 110.505 128.07C110.222 128.07 110.222 117.915 110.505 105.526C111.638 64.2951 111.638 63.0765 112.11 69.1697C112.298 72.2163 112.204 86.7384 111.826 101.362ZM77.6542 108.775C84.0733 135.078 87.566 153.967 86.3388 155.388C85.0173 156.81 83.1293 151.935 81.3357 142.288C80.2973 136.398 76.8046 119.032 73.6895 103.698C64.2496 56.8817 65.3824 58.405 77.6542 108.775ZM84.1677 82.8793C86.3388 89.5819 88.6988 95.5735 89.454 96.0813C91.5307 97.9092 94.5515 121.063 93.8907 130.812C93.3243 138.327 93.4187 139.14 95.0235 139.648C96.4394 140.155 97.1002 141.882 97.8554 147.67C98.5162 152.849 98.5162 155.185 97.761 155.693C95.6843 157.216 94.3627 156.404 94.3627 153.662C94.3627 152.139 93.9851 150.412 93.5131 149.803C92.0971 148.28 89.8316 137.718 87.8492 122.79C86.2444 111.314 80.8637 80.0359 78.6926 70.1852C77.4654 64.5998 80.2029 70.9976 84.1677 82.8793ZM105.313 113.548C104.652 134.164 103.897 149.6 103.425 150.108C103.331 150.311 102.387 144.624 101.443 137.616C99.7434 124.922 99.7434 124.821 101.82 111.01C105.502 87.043 106.068 87.4492 105.313 113.548ZM54.2434 114.869C61.6065 133.859 65.8544 147.772 66.6096 155.185C67.176 161.278 67.0816 161.583 65.1936 161.583C64.1552 161.583 63.2113 161.38 63.2113 161.075C63.2113 160.567 50.7507 112.431 48.5795 104.206C46.2196 95.8782 48.6739 100.346 54.2434 114.869ZM125.514 120.251C125.609 125.125 125.986 128.883 127.874 144.014L128.629 149.397H125.797C123.154 149.397 122.871 149.092 122.305 145.131C121.549 140.054 123.626 113.752 124.759 114.462C125.137 114.767 125.514 117.407 125.514 120.251ZM110.127 147.061C109.938 150.311 109.844 147.67 109.844 141.272C109.844 134.875 109.938 132.234 110.127 135.382C110.316 138.632 110.316 143.913 110.127 147.061ZM130.234 157.115C130.234 158.841 129.479 159.45 126.741 159.958C119.85 161.177 119.661 161.075 121.455 157.115C122.682 154.373 123.626 153.459 125.892 153.256C129.101 152.951 130.234 153.865 130.234 157.115ZM112.582 158.536C113.431 159.654 114.847 160.567 115.791 160.567C119.756 160.567 115.319 161.685 101.631 164.122C93.4187 165.645 86.2444 166.559 85.5836 166.356C84.2621 165.848 95.9675 162.599 101.631 161.888C104.086 161.583 106.446 160.466 107.767 159.044C110.505 156.099 110.599 156.099 112.582 158.536Z" fill="black"/>
</svg>
