<svg width="100" height="152" viewBox="0 0 100 152" fill="none" xmlns="http://www.w3.org/2000/svg">
<path d="M13.1979 151.811C12.9011 151.48 12.9011 150.873 13.1979 149.935L13.3957 149.714L12.7527 149.935L12.357 150.377C12.2087 150.542 12.0603 150.763 11.9614 151.094C11.6646 151.425 11.4668 151.535 11.3184 151.535V151.315C11.4668 151.149 11.5162 150.873 11.5162 150.487C11.5162 150.101 11.4668 149.99 11.3184 150.156C11.3184 150.321 11.2689 150.487 11.1205 150.597C11.1205 150.928 11.0216 151.204 10.8238 151.535C10.6259 151.867 10.4281 151.867 10.3292 151.535H9.93354C9.63678 151.204 9.38945 151.094 9.09269 151.094C8.69701 150.928 8.44975 150.928 8.44975 151.094L8.05404 150.652C8.05404 150.045 7.85618 149.935 7.41104 150.432C7.01536 150.873 6.66915 150.984 6.37239 150.652H5.72945C5.43269 150.818 5.28431 150.818 5.23485 150.763C5.18539 150.708 4.59182 150.321 3.45424 149.714C3.15748 149.383 3.0586 149.162 3.0586 148.997C3.0586 148.059 3.2564 147.396 3.70154 146.9C3.9983 146.569 3.89943 146.458 3.50375 146.458C3.20699 146.458 3.10805 146.624 3.10805 146.9C3.10805 147.065 2.95964 147.12 2.71234 147.12L2.3167 147.562L2.11885 148.003V147.562L2.3167 147.12L1.6737 147.838L1.03076 147.12C-0.0573628 145.41 -0.304687 143.864 0.387752 142.485C0.783432 141.381 2.36614 138.456 5.13589 133.71C5.67995 132.771 6.17456 131.888 6.57024 131.061C6.96592 130.233 7.31213 129.626 7.60889 129.35C9.83459 125.211 11.8625 121.348 13.7419 117.76C15.6214 114.228 16.9074 111.745 17.5998 110.365C17.7482 110.034 17.9955 109.427 18.4406 108.489C18.8363 107.551 19.4298 106.502 20.1223 105.233C21.3588 102.749 22.1501 101.204 22.4963 100.597C22.8425 99.9897 23.3372 98.9963 24.0296 97.5614C24.3264 96.7888 24.6726 95.961 25.1672 95.0228C25.6618 94.0846 26.1069 93.2568 26.5026 92.4841C27.1951 90.6077 27.838 89.3936 28.3821 88.7865C28.6788 88.0139 29.2229 86.855 30.0637 85.3097C30.4594 84.3715 30.8056 83.7092 31.1024 83.2125C31.3991 82.4399 31.6465 81.888 31.9432 81.612L32.141 81.1706L32.3389 80.9498C32.3389 80.7842 32.3884 80.6187 32.4378 80.5083C32.4873 80.3427 32.5367 80.1772 32.5367 80.0668C32.9324 79.6253 33.1797 79.239 33.1797 78.9079L35.257 74.9895C35.5538 74.548 35.7516 74.0513 35.9 73.6098C36.0484 73.1683 36.2462 72.782 36.543 72.4508C36.6913 72.1197 36.8397 71.7334 37.0375 71.2919C37.2354 70.8504 37.4332 70.4641 37.5321 70.1329C37.8289 69.8018 38.0268 69.4707 38.1752 69.0844C38.3235 68.698 38.4719 68.4221 38.5708 68.2565L38.9665 67.3184C39.2633 66.9872 39.3622 66.6009 39.3622 66.1594C39.5106 65.9938 40.0051 65.166 40.7965 63.6207C41.0933 62.8481 41.2911 62.4066 41.4395 62.241C41.4395 61.9099 41.489 61.6892 41.6373 61.5236C41.7857 61.5236 41.9835 61.1924 42.2803 60.5854C42.5771 60.1439 42.9233 59.316 43.4179 58.1571C43.9125 56.9981 44.3576 56.06 44.7533 55.2873C45.5941 53.7421 46.1382 52.6935 46.435 52.0312C46.5834 51.7001 46.7318 51.3138 46.9296 50.8723C47.1274 50.4308 47.3747 49.9341 47.6715 49.4926C47.9683 49.0511 48.265 48.3888 48.6112 47.5058C48.9574 46.678 49.2541 46.0709 49.5509 45.795C49.8476 45.4639 49.8972 45.3535 49.7488 45.3535L49.9466 44.9119V44.6912C49.9466 44.5257 49.996 44.4152 50.0455 44.36C50.0949 44.3049 50.1445 44.1945 50.1445 44.0289C50.1445 43.8634 50.1939 43.6978 50.3423 43.5875C50.639 42.9804 50.8369 42.6492 50.9853 42.6492V42.4285C51.1337 42.2629 51.1831 42.0974 51.1831 41.987L51.5788 41.0488C51.8755 40.7176 51.9745 40.4969 51.9745 40.3314C52.2712 39.8898 52.4691 39.3931 52.7164 38.8412C52.9142 38.2893 53.1615 37.7927 53.4583 37.3512C53.6067 36.9097 53.8045 36.3578 54.1013 35.7507C54.2497 35.4196 54.3979 35.1989 54.4969 35.0333C54.7936 34.5918 54.8926 34.2054 54.8926 33.8743C54.8926 33.7087 55.1893 33.1569 55.7334 32.2739C56.0301 31.3357 56.2775 30.7286 56.5743 30.3975C56.5743 29.7904 56.9204 28.8522 57.6129 27.6381C58.6021 25.0442 58.9977 23.7197 58.8494 23.7197C58.701 23.5542 58.5526 23.5542 58.4537 23.7197C58.1569 23.7197 57.8108 23.9404 57.4151 24.4371C57.2667 24.6027 57.1183 24.6579 57.0194 24.6579C56.871 24.6579 56.772 24.7131 56.7226 24.7683C56.6731 24.8234 56.5248 24.8787 56.4259 24.8787H56.228C56.0796 25.0442 55.5356 25.3201 54.5464 25.8168C53.5572 26.2583 52.9636 26.5895 52.6669 26.7551C52.3701 27.0862 52.1228 27.1965 51.8261 27.1965C51.6777 27.3621 51.5293 27.4173 51.4304 27.4173C51.1336 27.4173 51.0347 27.5829 51.0347 27.8588C50.7379 28.19 50.1939 28.4659 49.3531 28.797L48.1166 29.7352C48.1166 30.0663 47.9682 30.0663 47.7209 29.7352C47.7209 30.0663 47.5725 30.1767 47.3252 30.1767C47.0284 30.1767 46.9296 30.3423 46.9296 30.6183C46.7812 30.6183 46.6822 30.6734 46.6328 30.7286C46.5833 30.7838 46.4349 30.8389 46.336 30.8389H45.9404C45.792 31.0045 45.7425 31.1701 45.7425 31.2805C45.5941 31.446 45.4457 31.446 45.3468 31.2805L45.149 31.722C45.0006 31.722 44.9512 31.5564 44.9512 31.2805C44.8028 31.2805 44.7533 31.4461 44.7533 31.722C44.7533 32.0531 44.6049 32.1635 44.3576 32.1635C44.0609 32.329 43.863 32.4946 43.7146 32.605C43.7146 32.7706 43.5663 32.8258 43.319 32.8258C43.0222 32.8258 42.9233 32.8809 42.9233 33.0465C42.9233 33.3776 42.8738 33.5984 42.7254 33.7639C42.5771 33.9295 42.5276 33.9295 42.5276 33.7639C42.5276 33.5984 42.3792 33.5984 42.1319 33.6536C41.8352 33.7088 41.7362 33.9295 41.7362 34.2055C41.5879 34.371 41.4395 34.5366 41.3406 34.6469C41.1922 34.8125 40.7965 35.1988 40.1041 35.8059C39.56 36.137 39.2632 36.413 39.2632 36.7441C39.1149 36.9097 39.0654 37.0752 39.0654 37.1856C38.917 37.1856 38.7192 37.3512 38.4225 37.6271C38.2741 37.7927 38.0762 37.9583 37.7794 38.0687C37.4827 38.2342 37.2849 38.2342 37.1365 38.0687V38.7861C36.9881 38.7861 36.9387 38.8413 36.9387 38.8965C36.9387 38.9517 36.8892 39.0068 36.7408 39.0068L36.0978 39.7243C35.7021 40.1658 35.2076 40.7176 34.6635 41.3247C34.1195 41.9318 33.7732 42.2629 33.6248 42.2629L33.427 42.4837C33.427 42.6493 33.3775 42.7044 33.3281 42.7044C33.2786 42.7044 33.2292 42.7596 33.2292 42.9252C30.311 46.1813 27.4918 49.5478 24.722 53.0798C24.4253 53.4109 24.079 53.7972 23.6834 54.2387C23.2877 54.6802 22.9415 55.0665 22.6447 55.3977C21.8039 56.5014 21.062 57.3845 20.3696 58.0467C19.6771 58.7642 19.2815 58.9849 19.1331 58.8746C18.9847 59.0401 18.8363 59.0953 18.7374 59.0953C18.4406 59.4264 18.3417 59.4817 18.3417 59.3161C18.045 59.1505 17.7976 59.0953 17.5009 59.0953L17.303 58.8746C17.303 58.709 17.1547 58.8194 16.9074 59.0953C16.759 59.4264 16.6106 59.5368 16.5117 59.5368H16.3138C16.1654 59.5368 16.0665 59.4816 16.0171 59.4264C15.9676 59.3712 15.8193 59.3161 15.7203 59.3161C15.7203 58.985 15.4236 58.985 14.8795 59.3161C13.8903 59.3161 13.1979 59.0953 12.8022 58.5986C11.7141 57.9915 11.0217 57.1085 10.7249 56.06C10.1808 54.9562 9.88404 53.5213 9.88404 51.6449C9.88404 47.5058 10.9722 42.9252 13.1979 38.0134C17.7482 28.4659 24.1285 20.0773 32.2894 12.9028C40.4503 5.72834 49.5014 1.75481 59.4429 0.982178C60.8277 0.982178 62.0642 1.14777 63.1524 1.42371C63.548 1.42371 63.8449 1.47891 63.9933 1.64448C64.3889 1.64448 64.8835 1.81 65.4276 2.08594C65.5759 2.08594 65.7243 2.14117 65.8233 2.19636C65.9716 2.25155 66.12 2.30671 66.219 2.30671C66.5157 2.47227 66.763 2.63786 67.0598 2.74824C67.3565 3.07937 67.7027 3.1897 68.0983 3.1897C68.494 3.1897 68.8403 3.1897 69.1371 3.1897C69.1371 3.52083 69.4338 3.63124 69.9778 3.63124C70.3735 3.7968 71.066 4.12794 71.9562 4.67982C72.8465 5.23171 73.4401 5.61798 73.7369 5.94911C74.9733 6.72174 76.2593 7.54955 77.5948 8.48775C78.9302 9.42595 79.9688 10.4745 80.8096 11.7439L81.8482 12.9028C81.8482 13.2339 81.8978 13.3443 82.0461 13.3443C82.1945 13.3443 82.4418 13.6755 82.8869 14.3929C83.2826 15.1104 83.5299 15.4966 83.5299 15.6622C83.9256 16.1037 84.1728 16.4349 84.1728 16.6004C84.4696 16.9316 84.5685 17.2075 84.5685 17.5386C84.7169 17.5386 84.8653 17.7042 84.9642 17.9802C85.261 18.3113 85.4094 19.1391 85.4588 20.5188C85.5083 21.8985 85.4093 23.2782 85.162 24.6579C84.8653 25.872 84.7664 26.5895 84.7664 26.7551C84.7664 27.3622 84.5686 28.1348 84.1234 29.073C84.1234 29.4041 84.0245 29.7904 83.8266 30.3423C83.6288 30.8942 83.4309 31.1701 83.332 31.1701C83.332 31.3357 83.2332 31.722 83.0353 32.4394C82.8375 33.1569 82.6397 33.6536 82.5407 33.9295C82.3924 34.0951 82.3428 34.2606 82.3428 34.371C82.4912 34.371 82.5407 34.4262 82.5407 34.4814C82.5407 34.5366 82.4912 34.5918 82.3428 34.5918C82.1945 34.9229 82.145 35.0885 82.145 35.1437C82.145 35.1988 82.0955 35.4196 81.9471 35.6955C81.6504 36.0267 81.5515 36.413 81.5515 36.8545C81.5515 37.02 81.4031 37.4063 81.1558 38.0134C81.0075 38.179 80.8591 38.3446 80.7601 38.4549C80.4634 38.6205 80.3644 38.8413 80.3644 39.1724C80.5128 39.338 80.5128 39.5035 80.3644 39.6139C80.2161 39.6139 80.1666 39.7795 80.1666 40.0554C80.1666 40.3865 80.0182 40.4969 79.7709 40.4969C79.7709 40.828 79.6225 41.104 79.3752 41.4351C79.3752 41.7662 79.3258 42.0422 79.1774 42.3733C78.8807 42.5388 78.7817 42.7596 78.7817 43.0908L78.386 43.5322L78.1882 43.9738C78.1882 44.1393 78.1388 44.3601 78.0893 44.6912C78.0399 45.0224 77.8915 45.0775 77.7925 44.9119C77.9409 44.9119 77.7925 45.1327 77.3968 45.6294C77.3968 45.2983 77.3474 45.2431 77.199 45.4086C77.0507 45.5742 77.0507 45.8502 77.199 46.3469C77.199 46.5124 77.1495 46.7884 77.0011 47.1747C76.8528 47.561 76.655 47.837 76.3583 48.0025C76.2099 48.1681 76.2099 48.3336 76.3583 48.444C76.2099 48.6095 76.1603 48.7199 76.1603 48.7751C76.1603 48.8303 76.1109 48.9959 75.9625 49.1063V49.327L75.1218 51.2034C74.9734 51.369 74.9238 51.5345 74.9238 51.6449C74.6271 51.976 74.4292 52.3624 74.2808 52.8039C74.1325 53.2454 73.9347 53.7421 73.638 54.1836C73.638 54.5147 73.2917 55.177 72.5992 56.2807L71.9562 57.6604C71.9562 57.9916 71.9068 58.2123 71.7585 58.3778C71.4617 58.8194 71.1154 59.5368 70.7197 60.475C70.423 60.8062 70.2746 61.0821 70.2251 61.4132C70.1757 61.7443 70.0274 61.9651 69.9285 62.1307C69.7801 62.2962 69.7305 62.4618 69.7305 62.5721L69.5328 63.0137C69.5328 63.3448 69.4832 63.5656 69.3348 63.7311L68.2963 65.3315L67.2576 67.6495C67.1092 67.815 67.0103 68.0358 66.9609 68.3669C66.9114 68.698 66.7136 68.974 66.4663 69.3051C66.1695 69.7466 65.9717 70.2433 65.7244 70.7952C65.5265 71.3471 65.2792 71.8438 64.9825 72.2853C64.6857 72.7268 64.4879 73.2235 64.2406 73.7754C64.0427 74.3272 63.8449 74.6584 63.746 74.8239L63.3503 75.7621L63.1524 75.9829C63.1524 76.1484 63.1029 76.314 62.9546 76.4244L62.7568 76.8659C62.7568 77.0314 62.7072 77.197 62.5589 77.3074L62.3611 77.7489C62.2127 77.9144 62.1632 78.0249 62.1632 78.0801C62.1632 78.1352 62.1137 78.3008 61.9654 78.4112C61.817 78.7423 61.6686 78.9631 61.5697 79.239C61.4213 79.4597 61.3719 79.6805 61.3719 79.7909C61.2235 79.9564 61.174 80.0668 61.174 80.122C61.174 80.1772 61.1245 80.3427 60.9762 80.4531V80.6739C60.6794 80.8394 60.4815 81.005 60.3332 81.2258C60.1848 81.4465 60.1848 81.5017 60.3332 81.3361C60.3332 81.5017 60.2837 81.6121 60.2343 81.6673C60.1848 81.7225 60.1354 81.888 60.1354 81.9984V82.2192C60.1354 82.3847 60.0858 82.5503 59.9375 82.6606C59.5418 83.1021 59.245 83.4884 59.0967 83.8196C58.9483 84.4266 58.7504 84.9233 58.4537 85.1993L58.2559 85.42C58.2559 85.5856 58.1569 85.9167 57.9591 86.4686C57.7612 87.0205 57.5634 87.2964 57.4645 87.2964C57.3161 87.738 57.1678 88.0139 57.0689 88.0139V88.2346C56.9205 88.4002 56.871 88.5658 56.871 88.6762C56.7226 89.0073 56.5742 89.2281 56.4753 89.3936C56.1785 90.0007 56.0797 90.2214 56.0797 90.111C55.9313 90.4422 55.684 90.9389 55.3378 91.6011C54.9916 92.3186 54.6947 92.8153 54.398 93.0912C54.398 93.2568 54.3485 93.3671 54.2991 93.4223C54.2496 93.4775 54.2002 93.6431 54.2002 93.7534L53.5572 94.4709C53.2604 94.802 53.1615 95.0228 53.1615 95.1884C53.1615 95.3539 53.1121 95.5195 52.9637 95.6298C52.9637 95.961 52.9142 96.1818 52.7658 96.3473C52.6174 96.9544 52.4691 97.3407 52.3702 97.5063C52.2218 97.5063 52.1723 97.6718 52.1723 97.9478C52.0239 97.9478 51.9745 98.0029 51.9745 98.0581C51.9745 98.1133 51.925 98.1685 51.7766 98.1685C51.7766 98.7756 51.4798 99.3826 50.9358 100.045L50.738 100.486C50.5896 100.652 50.3917 101.038 50.095 101.645C49.7982 101.976 49.5015 102.418 49.1553 103.025C48.8091 103.632 48.5122 104.239 48.2155 104.901C47.3747 106.116 46.979 106.888 46.979 107.219C46.5833 107.992 46.2866 108.378 46.1382 108.378C46.1382 108.544 45.9898 108.875 45.7425 109.427C45.4457 109.979 45.2479 110.255 45.0995 110.255C44.9511 110.42 45.0501 110.475 45.2974 110.475C45.4458 110.475 45.6931 110.42 46.0393 110.255C46.3855 110.089 46.6822 109.924 46.979 109.813C47.1274 109.813 47.4736 109.648 48.0177 109.372C52.3207 107.661 55.8817 106.447 58.701 105.674C61.5202 104.901 64.5373 104.35 67.7028 104.074C68.2468 104.074 68.7414 104.018 69.1371 103.963C69.5327 103.908 69.879 103.853 70.1758 103.853C71.4123 103.687 72.7477 103.522 74.2315 103.411C75.6658 103.246 76.8033 103.191 77.6441 103.191C78.1882 103.025 78.7323 102.97 79.1774 102.97C79.672 102.97 80.0183 102.97 80.315 102.97C81.4032 102.804 82.5407 102.749 83.7277 102.749C84.9148 102.749 86.0523 102.749 87.1404 102.749C87.9812 102.749 89.3662 102.804 91.394 102.859C93.3724 102.915 94.7573 103.301 95.4497 103.908L96.6862 104.626C97.2303 104.957 97.7744 105.233 98.3679 105.564C98.912 105.895 99.2087 106.116 99.2087 106.281C99.2087 106.447 99.3571 106.502 99.6044 106.502C99.7528 106.502 99.8022 106.667 99.8022 106.943C99.8022 107.275 99.8516 107.495 100 107.661C100 107.826 99.9012 108.102 99.7033 108.489C99.5055 108.875 99.3076 109.041 99.2087 109.041V109.482V109.924L99.0108 110.144C98.8624 110.31 98.5657 110.475 98.0711 110.586C97.5765 110.751 97.2798 110.751 97.1314 110.586C96.983 110.586 96.8346 110.641 96.7357 110.807H96.5378C96.3894 110.972 96.1917 111.027 95.8949 111.027C95.7465 111.027 95.6476 111.083 95.5981 111.138C95.5487 111.193 95.4002 111.248 95.3013 111.248C95.1529 111.248 95.0046 111.248 94.9057 111.248H93.867C93.7186 111.414 93.5702 111.469 93.4713 111.469C93.3229 111.469 93.1745 111.524 93.0756 111.69H91.8391C91.8391 111.855 91.5424 112.021 90.9983 112.131C90.4543 112.297 90.1081 112.297 89.9597 112.131C89.8114 112.297 89.1188 112.517 87.8823 112.849C87.5856 112.849 87.3383 112.904 87.0415 113.069C86.7448 113.069 86.5469 113.125 86.2996 113.18C86.1018 113.235 85.8545 113.29 85.5577 113.29C84.7169 113.732 83.9751 114.008 83.2826 114.008L81.8482 114.449C81.5515 114.449 81.1064 114.559 80.4139 114.78C79.7215 115.001 79.0291 115.222 78.3366 115.332C76.655 115.939 75.7647 116.325 75.6657 116.491C75.369 116.657 74.6766 116.877 73.5884 117.208C72.5003 117.54 71.8079 117.76 71.5112 117.926C71.1155 117.926 70.7692 118.091 70.4724 118.367C70.3241 118.367 70.2252 118.423 70.1758 118.478C70.1263 118.533 69.9285 118.588 69.6812 118.588H69.2855C69.2855 118.754 69.0876 118.919 68.7909 119.03C68.4446 119.195 68.1478 119.195 67.851 119.03C67.4554 119.471 67.1586 119.747 67.0103 119.747C66.7135 119.747 66.4662 119.802 66.1695 119.968L65.3287 120.409H64.933C64.933 120.244 64.8835 120.189 64.8341 120.189C64.7846 120.189 64.7352 120.244 64.7352 120.409C64.5868 120.575 64.4384 120.63 64.3395 120.63L63.9438 120.851C63.9438 121.016 63.7954 121.072 63.5481 121.072C63.2513 121.403 62.8062 121.513 62.1138 121.513L61.7181 121.734C61.4213 122.065 61.174 122.175 60.8773 122.175C60.4816 122.175 60.1353 122.341 59.8386 122.617L59.1956 122.838C59.1956 123.003 59.0473 123.058 58.8 123.058C58.8 123.224 58.6516 123.279 58.4043 123.279C58.1075 123.114 57.7612 123.279 57.3656 123.721C57.0688 123.886 56.7227 124.162 56.327 124.659C55.9313 124.824 55.2883 125.1 54.4475 125.487C53.6067 125.873 53.0131 126.204 52.568 126.535L51.7272 126.977C51.4304 127.142 50.7874 127.473 49.7488 128.025C48.7101 128.577 48.1166 128.853 47.9682 128.853V128.412C47.8198 128.412 47.7704 128.356 47.7704 128.301C47.7704 128.246 47.8198 128.191 47.9682 128.191C47.9682 128.025 47.8198 127.97 47.5725 127.97C47.2757 127.97 47.2757 128.301 47.5725 128.908C47.7209 129.074 47.5726 129.295 47.1769 129.626C46.3361 130.067 45.7425 130.454 45.2974 130.785C45.0006 130.785 44.7534 130.95 44.4566 131.226C44.3082 131.226 44.1598 131.281 44.0609 131.447C42.3793 132.551 41.0438 133.434 40.0051 134.096C38.9665 134.813 37.9773 135.42 36.9881 135.972C35.9989 136.524 35.4054 136.966 35.1086 137.242C34.9602 137.242 34.7624 137.352 34.4657 137.573C34.1689 137.794 33.8227 138.07 33.427 138.401L30.311 140.498C30.1626 140.829 29.8164 141.105 29.2724 141.436C29.124 141.436 28.9756 141.491 28.8767 141.657L28.6788 141.878C28.5304 141.878 28.3326 142.043 28.0359 142.319C27.195 142.926 26.7994 143.092 26.7994 142.761L26.6015 143.202L26.4037 143.423C26.2553 143.423 26.1564 143.478 26.1069 143.533C26.0575 143.588 26.0574 143.644 26.2058 143.644C26.0574 143.809 25.8596 143.975 25.5629 144.085C25.2661 144.251 25.0682 144.416 24.9199 144.527C24.3758 144.692 24.0791 144.913 24.0791 145.244C23.7823 145.575 23.535 145.686 23.2382 145.686L21.8039 146.844C21.5072 147.01 21.1609 147.286 20.7652 147.783C20.3695 148.114 19.875 148.445 19.3309 148.831C18.7869 149.218 18.3417 149.549 18.0944 149.88C17.7977 150.211 17.5503 150.321 17.2536 150.321C16.9568 150.487 16.759 150.652 16.6106 150.763C16.6106 151.094 16.4128 151.094 15.9676 150.763C15.8193 150.597 15.6214 150.597 15.3246 150.763C13.8408 151.922 13.4946 151.977 13.1979 151.811ZM11.9614 132.385C12.5054 131.944 13.5936 130.343 15.1763 127.639C16.759 124.935 18.4406 121.955 20.2706 118.754C22.0512 115.498 23.7823 112.407 25.365 109.372C26.9477 106.392 28.0359 104.405 28.5799 103.467C28.9756 102.694 29.4702 101.756 30.0143 100.707C30.5583 99.6034 31.0035 98.7756 31.2508 98.1685C31.9432 96.9543 32.7345 95.4091 33.6248 93.6431C34.5151 91.8771 35.1086 90.6077 35.4054 89.8351C35.7022 89.228 35.9494 88.7313 36.2462 88.4554C36.3946 88.2898 36.4441 88.1243 36.4441 88.0139L36.6419 87.7932C36.9387 87.3516 37.2849 86.579 37.6806 85.5856C38.0762 84.5922 38.373 84.0955 38.5213 84.0955C38.5213 83.7644 38.7686 83.1573 39.2632 82.1087C39.7578 81.1154 40.0546 80.6187 40.203 80.6187C40.3514 80.2876 40.4503 80.0668 40.4997 79.7909C40.5492 79.5701 40.7965 79.0734 41.2416 78.3008C41.39 77.9696 41.7362 77.197 42.2803 75.9829C42.8243 74.7687 43.2695 73.9961 43.5168 73.665L43.7146 73.2235C44.0114 72.6164 44.2093 72.2301 44.3576 72.0645L45.1985 70.1881C45.1985 70.0226 45.2973 69.7466 45.4952 69.3603C45.693 68.974 45.9403 68.5325 46.2371 68.0909C46.5338 67.6494 46.7317 67.0424 46.979 66.3801C47.1768 65.6627 47.4241 65.166 47.7209 64.8901L49.6004 60.751C49.8971 60.3095 50.095 59.9232 50.2434 59.592C50.3918 59.2609 50.5402 58.9849 50.6391 58.6538C50.7875 58.3227 50.9358 58.0467 51.0347 57.7156C51.3314 57.3845 51.4304 57.1085 51.4304 56.7774C51.8261 56.3359 51.9745 56.06 51.8261 56.06C51.8261 55.8944 52.1228 55.2322 52.6669 54.0732C53.2109 52.9143 53.6561 52.0864 53.9034 51.6449C53.9034 51.2034 54.0518 50.9274 54.2991 50.9274C54.4475 50.5963 54.5959 50.21 54.6948 49.6582C54.8432 49.1063 54.9916 48.7751 55.0905 48.6096C55.2389 48.444 55.2883 48.2784 55.2883 48.168C55.585 47.8369 55.684 47.561 55.684 47.2299C56.0797 46.4572 56.3764 46.0709 56.5248 46.0709V45.6294L57.7613 42.87C58.058 42.5389 58.3053 41.8766 58.6021 40.7728C59.1461 39.5587 59.4924 38.8413 59.6408 38.6757C59.9375 38.3446 60.0365 38.1238 60.0365 37.9582V37.2408H60.4321C60.2837 37.0753 60.2343 36.9097 60.2343 36.7993C60.2343 36.6337 60.2837 36.6337 60.4321 36.7993C60.5804 36.7993 60.63 36.6337 60.63 36.3578V35.9163L61.0257 34.9781C61.1741 34.8125 61.3718 34.2607 61.6686 33.3777L62.3116 32.2187L62.5095 31.7772C62.5095 31.4461 62.5589 31.2253 62.7073 31.0597V30.6183L62.5095 30.8389V31.0597C62.5095 31.2253 62.4599 31.3909 62.3116 31.5012C62.1632 31.9428 61.9653 32.2187 61.6686 32.2187C61.6686 32.5498 61.5203 32.8258 61.273 33.1569C60.8773 33.5984 60.63 34.1503 60.63 34.7574C60.3332 35.53 60.0364 36.2474 59.6902 36.8545C59.3439 37.4615 58.8988 38.3445 58.3548 39.3931C58.058 39.8346 57.7118 40.6625 57.2172 41.8214C56.7226 42.9804 56.1291 44.1945 55.4367 45.4086C54.7442 46.6228 54.1012 47.8921 53.5572 49.1063C53.0131 50.3204 52.568 51.2034 52.3207 51.6449C51.4799 53.1902 50.9853 54.1284 50.8864 54.4043C50.738 54.7355 50.4907 55.2322 50.1445 56.0048C49.7983 56.7774 49.4026 57.6052 49.0069 58.5434C47.622 61.1925 46.4349 63.6208 45.4952 65.9387C44.6544 67.4839 44.1598 68.4221 44.0609 68.6981C44.0609 68.8636 44.0114 69.0292 43.9619 69.1395C43.9125 69.3051 43.863 69.4707 43.863 69.5811L43.6652 69.8018L43.2695 70.5192C43.1211 70.8504 43.0222 71.1263 42.9727 71.4575C42.9233 71.7886 42.7254 72.0645 42.4781 72.3956C42.1814 72.7268 41.7362 73.6098 41.0438 75.1551C40.3514 76.7003 39.8568 77.6385 39.6095 77.9145C39.6095 78.356 38.6697 80.4531 36.7903 84.1508C34.9108 87.8484 32.8335 91.9874 30.4594 96.5128C28.0853 101.038 25.9091 105.398 23.8318 109.482C21.7545 113.566 20.419 116.049 19.875 116.988L19.0341 118.864C17.7976 121.182 16.6106 123.169 15.5225 124.88C14.6817 126.59 13.8903 128.025 13.1484 129.295C12.4065 130.509 11.9119 131.281 11.813 131.613C11.813 131.778 11.6646 131.999 11.4173 132.33L11.2195 132.771C11.17 132.992 11.4173 132.882 11.9614 132.385ZM13.8408 48.6647C13.8408 48.3336 14.1871 47.5058 14.8795 46.1261C15.572 44.7464 16.0665 43.8082 16.3138 43.3667L17.1547 41.987L17.7976 40.6073C18.0944 40.2762 18.2922 39.945 18.4406 39.5587C18.589 39.1724 18.7869 38.8412 19.0836 38.5101C19.4793 37.5719 19.8255 36.9648 20.1223 36.6337C20.518 35.6955 20.7652 35.3092 20.7652 35.4748C21.3093 34.5366 21.9523 33.488 22.6447 32.3291C23.3372 31.1701 23.8318 30.6183 24.0791 30.6183L24.4747 29.68C24.6231 29.68 24.6726 29.5145 24.6726 29.2385C24.6726 29.073 24.821 28.9074 25.0683 28.797C25.0683 28.4659 24.9694 28.4107 24.7715 28.5762C24.5737 28.7418 24.3758 28.9626 24.2769 29.2937C24.1285 29.6249 23.9307 29.7352 23.6339 29.7352H23.4361C23.4361 29.9008 23.3866 30.0663 23.2382 30.1767C23.3866 30.1767 23.535 30.1215 23.6339 29.956C23.6339 30.563 23.3372 30.8942 22.7931 30.8942C22.4964 31.5013 22.249 31.8876 21.9523 32.0531C21.8039 32.3843 21.6555 32.5498 21.5566 32.605C21.4082 32.6602 21.3588 32.8257 21.3588 32.9361C21.3588 33.1017 21.2104 33.3225 20.9631 33.6536C20.6663 33.9847 20.5674 34.0399 20.5674 33.8743C20.5674 34.2054 20.3696 34.5918 20.0728 35.1437C19.7266 35.6955 19.4793 35.9715 19.3309 35.9715C18.9353 36.413 18.6879 36.7993 18.6879 37.1304L18.2922 37.5719L18.0944 38.0134L17.8966 38.4549C17.7482 38.6205 17.5503 39.0068 17.2536 39.6139C16.1655 41.3247 15.2257 43.0907 14.5827 44.9119C13.8903 46.7883 13.3957 48.3888 13.1484 49.7685V50.486L13.5441 49.5477L13.8408 48.6647ZM13.643 45.6294C13.9398 44.6912 14.1376 44.1393 14.286 43.9186C14.4344 43.6978 14.3354 43.753 14.0881 44.0289C13.9397 44.3601 13.7419 44.8568 13.4452 45.6294C13.1484 46.402 13.0495 46.8435 13.0495 47.0091C13 47.5058 13.1979 47.0091 13.643 45.6294ZM16.3138 54.4595C16.4622 53.8524 16.6106 53.3005 16.7095 52.859C16.8579 52.4175 16.9074 52.0864 16.9074 51.9209L16.7095 52.3623C15.8687 53.9076 15.473 55.2322 15.473 56.2807C15.473 56.6119 15.5225 56.667 15.5719 56.5014C15.6708 56.3911 15.9181 55.6736 16.3138 54.4595ZM16.3138 51.4242V51.2034L16.116 51.4242C16.116 51.5897 16.1655 51.6449 16.2149 51.6449C16.3139 51.6449 16.3138 51.5897 16.3138 51.4242ZM27.9369 117.595L27.7391 117.816C27.8875 117.816 27.9369 117.76 27.9369 117.595ZM42.4287 110.862C42.7255 110.255 43.1211 109.427 43.6652 108.434C44.2093 107.44 44.8523 106.392 45.5447 105.288C47.078 102.694 48.0177 100.983 48.3639 100.21C48.7101 99.4379 49.2048 98.4997 49.8972 97.4511C50.4413 96.3473 50.8864 95.5195 51.1337 94.9124C51.4305 94.3054 51.6777 93.7535 51.9745 93.312C52.2712 92.8705 52.4691 92.4842 52.6175 92.153L53.0131 91.7115C53.7055 90.4974 54.3485 89.2832 54.8926 88.1243C55.4366 86.9653 55.9808 85.7512 56.5743 84.537C56.7227 84.2059 56.9699 83.654 57.4151 82.8262C57.8108 81.9984 58.1075 81.5569 58.2559 81.5569C58.2559 81.2257 58.6021 80.3979 59.2946 79.0182C59.987 77.6385 60.4816 76.7003 60.7289 76.2588L60.9267 76.0381C61.075 75.8725 61.1246 75.707 61.1246 75.5966C61.1246 75.1551 61.5203 74.272 62.3611 73.0579C64.0427 69.0291 65.0319 66.8216 65.4771 66.325C65.6254 66.1594 65.6749 65.9938 65.6749 65.8834C65.6749 65.7179 65.8233 65.4971 66.0706 65.166C66.2189 64.8349 66.3673 64.4485 66.5652 63.8967C66.763 63.3448 66.9608 62.9585 67.0598 62.6274C67.6038 61.4132 67.9006 60.8613 67.9006 61.0269C68.0489 60.6958 68.1479 60.5302 68.1974 60.475C68.2468 60.4198 68.3457 60.1991 68.4941 59.9231C68.7908 59.592 69.0381 58.9849 69.3348 58.0467C69.6316 57.4397 69.8295 57.0534 69.9778 56.8878L70.1758 56.667C70.1758 56.3359 70.2252 56.1703 70.2747 56.1151C70.3241 56.06 70.3736 55.9496 70.3736 55.784C70.7692 55.3425 71.0166 55.0114 71.0166 54.8458C71.0166 54.6802 71.066 54.5147 71.2143 54.4043V54.1836C71.3627 53.8524 71.5111 53.742 71.6101 53.742C71.6101 53.3005 71.7585 52.9694 72.0058 52.8039C72.3025 52.4727 72.4015 52.1968 72.4015 51.8657C72.6982 51.5346 72.797 51.3138 72.797 51.1482C73.0938 50.8171 73.2917 50.7619 73.44 50.9274C73.5884 50.9274 73.7368 50.7619 73.8357 50.486C73.9841 50.486 73.9841 50.3204 73.8357 50.0445H73.638C73.638 50.21 73.5884 50.2652 73.44 50.2652C73.44 49.8237 73.4896 49.5477 73.638 49.5477C74.182 49.5477 74.3303 49.3822 74.0335 49.1063C73.8852 49.1063 73.8357 48.9407 73.8357 48.6647H74.0335C74.1819 48.6647 74.3303 48.6095 74.4292 48.444C74.4292 48.2784 74.5776 48.0577 74.8249 47.7266C74.6766 47.561 74.7754 47.3954 75.0227 47.1747C75.3195 46.9539 75.4184 46.8987 75.4184 47.0643C75.4184 47.2298 75.4679 47.2851 75.5173 47.1747C75.5668 47.1195 75.6164 47.0091 75.6164 46.8435C75.7647 46.5124 75.9625 46.2365 76.2592 45.9053C76.2592 45.5742 76.111 45.519 75.8637 45.6846L76.2592 45.2431C76.4076 45.2431 76.4077 45.1879 76.3583 45.0223C76.3088 44.8568 76.1604 44.8016 76.0614 44.8016C75.9131 44.8016 75.8637 44.8568 75.8637 45.0223C75.7153 44.8568 75.6657 44.6912 75.6657 44.5808C75.6657 44.4152 75.8141 44.4152 76.0614 44.5808C76.2098 44.5808 76.4077 44.4153 76.7044 44.1393V43.9186C76.5561 43.9186 76.4077 43.8634 76.3087 43.6978V43.477C76.4571 43.477 76.5065 43.4219 76.5065 43.3667C76.5065 43.3115 76.5561 43.2563 76.7044 43.2563C77.1001 43.0907 77.1001 42.8148 76.7044 42.3181L76.5065 42.0973L76.7044 41.6559C77.1001 41.6559 77.199 41.4903 76.9022 41.2143C76.9022 40.7728 77.1001 40.4969 77.5452 40.4969C77.3969 40.3313 77.3474 40.1657 77.4463 39.945C77.4958 39.7242 77.5947 39.6139 77.743 39.6139C77.743 39.1724 77.8914 38.7861 78.1387 38.4549L78.3366 37.7375C78.485 37.5719 78.5344 37.4064 78.5344 37.296V37.0752C78.5344 36.7441 78.5839 36.5233 78.7322 36.3578C78.5839 36.3578 78.2377 36.9648 77.6936 38.2342C77.1496 39.4483 76.8033 40.1106 76.6549 40.1106V40.3314C76.6549 40.4969 76.6055 40.6624 76.4571 40.7728C76.1604 41.1039 76.0614 41.3799 76.0614 41.7111C76.0614 41.8766 75.8636 42.2629 75.5668 42.87C75.2206 43.4771 74.9733 43.8634 74.8249 44.0289C74.5282 44.3601 74.4788 44.5808 74.6272 44.7464C74.6272 45.0775 74.4293 45.4638 73.9842 45.9053C73.8358 46.2365 73.6874 46.4572 73.5884 46.6228C73.5884 46.7884 73.3906 47.285 73.0938 48.1129C72.7476 48.9407 72.3025 49.934 71.7585 50.9826C71.2144 52.0864 70.7197 53.0798 70.324 53.9628C69.9284 54.8458 69.5822 55.5081 69.2855 55.8392C68.9887 56.2807 68.7908 56.7774 68.6425 57.2189C68.4941 57.6604 68.3457 58.0467 68.2468 58.3778C67.7027 59.316 67.2081 60.2542 66.8125 61.1373C66.4168 62.0755 65.8232 63.3448 65.0319 64.9452C64.29 66.5457 63.3502 68.5877 62.2127 71.0711C61.9159 71.4022 61.718 71.7334 61.5697 72.1197C61.4213 72.506 61.2234 72.8372 60.9267 73.1683C60.6299 73.9409 59.9869 75.3206 58.9483 77.3074C57.9096 79.2942 57.3162 80.4531 57.1678 80.7842L56.9699 81.5017C56.8215 81.6673 56.6237 82.1088 56.327 82.8814C55.6345 83.9852 55.1893 84.7578 54.9915 85.3097C54.7936 85.8616 54.5958 86.2478 54.4969 86.579C54.3485 86.7445 54.2496 86.9101 54.2002 87.0205C54.1507 87.1861 54.0023 87.3517 53.9034 87.462L53.2604 88.8417C52.9636 89.1729 52.7163 89.6695 52.4196 90.4421C51.7271 91.9874 51.1831 93.0912 50.738 93.6983L50.3423 94.6365L50.1445 95.078L49.7488 96.0162L48.908 97.3959L48.7101 97.6166C48.7101 97.7822 48.6607 97.9478 48.5123 98.0581C48.5123 98.2237 48.4629 98.2789 48.4134 98.2789C48.3639 98.2789 48.3144 98.3341 48.3144 98.4997C48.166 98.9412 47.7209 99.8794 46.979 101.259C46.2371 102.639 45.3963 104.129 44.506 105.784C43.6157 107.385 42.8244 108.875 42.1319 110.2C41.4395 111.524 40.9449 112.297 40.6976 112.628C40.4008 112.959 40.4998 113.069 40.8954 113.069C41.4395 112.241 41.8846 111.634 42.4287 110.862ZM42.033 90.2766V90.0559L41.8352 90.2766C41.8352 90.4422 41.8846 90.4974 42.033 90.4974V90.2766ZM42.2308 90.0559L42.6265 89.1177C42.3792 89.4488 42.2308 89.7247 42.2308 90.0559ZM43.4673 87.9587C43.7641 87.3516 43.9619 86.7998 44.2092 86.3583C44.4071 85.9168 44.6544 85.3649 44.9512 84.7578C45.0996 84.5922 45.3469 84.0403 45.792 83.1573C45.9404 82.9918 45.9898 82.8814 45.9898 82.8262C45.9898 82.771 46.0393 82.6607 46.1877 82.4951L46.3855 82.2743C46.3855 82.1088 46.6822 81.4465 47.3252 80.1772C47.9682 78.963 48.3144 78.3008 48.4628 78.3008V77.8593C48.6112 77.6937 48.6607 77.5281 48.6607 77.4178C48.8091 77.2522 49.0068 76.8659 49.3036 76.2588C49.6003 75.6517 49.7982 75.3206 49.9466 75.3206L50.1445 75.0999C50.1445 74.7688 50.2928 74.4928 50.5401 74.1616L51.9745 70.9056L53.4088 68.1462C53.5572 67.8151 53.6561 67.6495 53.7056 67.5943C53.755 67.5391 53.8539 67.3184 54.0023 67.0424C54.1506 66.8769 54.3485 66.4905 54.6453 65.8834L54.8432 65.442L55.041 65.0004V64.7797C55.1894 64.7797 55.3872 64.4486 55.684 63.8415C55.8324 63.6759 55.8818 63.4551 55.8818 63.124C56.0302 63.124 56.228 62.8481 56.5248 62.2962C56.8215 61.7443 56.9205 61.4132 56.9205 61.2477C56.9205 61.0821 57.0689 60.8061 57.3162 60.3094C57.6129 59.8679 57.8107 59.5368 57.9591 59.3713L58.157 59.1505V58.709C58.4537 58.2675 58.6516 57.7708 58.8989 57.3293C59.0967 56.8878 59.344 56.3911 59.6408 55.9496C59.7892 55.508 59.987 55.0114 60.2838 54.5699C60.1354 54.5699 60.2837 54.3491 60.6794 53.8524L60.8773 53.4109L61.0751 53.1901C61.2234 53.0246 61.273 52.8591 61.273 52.7487L61.4708 52.3072C61.4708 52.1416 61.5202 52.0312 61.5697 51.976C61.6191 51.9208 61.6686 51.8105 61.6686 51.6449C61.9653 51.3138 62.1632 50.9274 62.3116 50.3756C62.4599 49.8237 62.6578 49.4374 62.9546 49.1063C63.4986 47.8921 63.8449 47.1747 63.9933 47.0091C64.1416 46.8435 64.1911 46.6779 64.1911 46.5676L64.3889 46.3469C64.3889 46.1813 64.4384 46.0157 64.5868 45.9053C64.5868 45.5742 64.6362 45.4638 64.7846 45.4638L65.1803 45.0223C65.1803 44.6912 65.2297 44.4704 65.3781 44.3049C65.5264 44.1393 65.576 43.9186 65.576 43.5875C65.7243 43.4219 65.7738 43.2563 65.7738 43.1459L65.9717 42.7044L66.1695 42.4837L66.3672 42.2629C66.3672 41.9318 66.4168 41.711 66.5652 41.5455V41.3247C66.8619 41.3247 66.9609 41.104 66.9609 40.6073C67.1092 40.4417 67.1587 40.2209 67.1587 39.8898L67.3564 39.4484C67.3564 39.1172 67.406 38.7861 67.5544 38.3998C67.7027 38.0134 67.8511 37.8479 67.9501 37.8479C68.0984 37.6823 68.1479 37.5167 68.1479 37.4064C68.1479 37.0752 68.1973 36.9649 68.3456 36.9649C68.3456 37.1305 68.3952 37.1856 68.4447 37.0752C68.4941 37.02 68.5436 36.9097 68.5436 36.7441C68.3952 36.413 68.1973 36.3578 67.9006 36.5234L67.7028 36.9649L67.3071 37.9031C66.9114 38.8413 66.5651 39.4483 66.2684 39.7795C65.5759 40.9936 65.0814 42.0422 64.7352 42.9252C64.3889 43.753 63.9932 44.5808 63.5976 45.3535C63.4492 45.6846 63.1524 46.402 62.6578 47.561C62.1632 48.7199 61.5697 49.9341 60.8773 51.1482C59.4924 53.6317 58.6516 55.3977 58.4043 56.4463C57.8602 57.3845 57.3161 58.3227 56.871 59.3161C56.3764 60.3095 55.9807 61.1372 55.7334 61.7443C55.4366 62.0754 55.3378 62.3514 55.3378 62.6825C55.1894 62.8481 55.1399 63.0136 55.1399 63.124C54.5958 64.2278 54.0518 65.2764 53.4583 66.3801C52.4691 68.8636 51.5293 70.9056 50.5401 72.6164C49.8476 73.8306 49.2542 75.0447 48.7596 76.2036C48.265 77.3626 47.8199 78.3008 47.4242 79.0734C47.0285 80.0116 46.5834 80.8394 46.1877 81.612C46.0393 81.9432 45.792 82.4399 45.4458 83.1022C45.0996 83.8196 44.8523 84.3163 44.7039 84.5922C44.4071 84.9233 44.3082 85.1993 44.3082 85.5305L44.1103 85.7512C44.1103 85.9167 44.0609 86.0823 43.9125 86.1927L43.7146 86.6342L43.5168 86.8549L43.319 87.0757C43.319 87.4068 43.2695 87.6828 43.1211 88.0139C42.7255 88.9521 42.4781 89.3384 42.4781 89.1729L43.4673 87.9587ZM44.9512 81.7225L44.7533 81.9432C44.7533 82.1088 44.8027 82.1639 44.8522 82.1639C44.9016 82.2191 44.9512 82.0536 44.9512 81.7225ZM45.792 97.2303L46.1877 96.7888C46.5834 95.8506 47.0285 95.078 47.4242 94.4709C48.265 92.9256 48.7596 92.153 48.8585 92.153C48.8585 91.0493 49.2542 90.2766 50.095 89.8351C50.095 88.8969 50.3917 88.2898 50.9358 87.9587L51.1337 87.5172C51.2821 87.1861 51.3809 87.0205 51.4304 86.9653C51.4798 86.9101 51.5293 86.7998 51.5293 86.6342C51.6777 86.6342 51.8755 86.2478 52.1723 85.4752C52.3207 85.3096 52.3702 85.1993 52.3702 85.1441C52.3702 85.0889 52.4196 84.9785 52.568 84.813L52.7658 84.5922L52.9637 84.1508V83.93L53.1615 83.4885L53.3594 83.047C53.6561 82.7159 53.755 82.4951 53.755 82.3295C53.9034 81.9984 54.0518 81.7776 54.1507 81.612C54.1507 81.2809 54.3485 80.8394 54.7937 80.2323L55.4367 78.8526C55.5851 78.6871 55.8324 78.3008 56.1786 77.5833C56.5248 76.8659 56.6732 76.4796 56.6732 76.314C57.3656 75.5414 57.7118 74.824 57.7118 74.2169C58.1074 73.7754 58.4043 73.2235 58.5527 72.6164C58.7011 72.2853 58.8494 71.899 59.0473 71.4575C59.2451 71.016 59.4924 70.5193 59.7892 70.0778C59.9376 69.9122 60.1848 69.5259 60.63 68.8084C61.0751 68.091 61.273 67.7046 61.273 67.5391C61.1246 67.5391 61.2234 67.208 61.5697 66.4905C61.9159 65.7731 62.2127 65.3868 62.5095 65.2212L63.1524 63.8415C63.3007 63.4 63.4986 62.9033 63.7954 62.4618C64.0921 61.8547 64.3394 61.2477 64.6362 60.751C64.9329 60.1991 65.1308 59.8127 65.2792 59.4816C65.5759 59.1505 65.6749 58.8746 65.6749 58.5434C65.9716 58.5434 66.0706 58.3227 66.0706 57.826C66.2189 57.4948 66.3178 57.3293 66.3672 57.2741C66.4167 57.2189 66.5157 56.9981 66.6641 56.7222C66.6641 56.5566 66.7135 56.3911 66.8618 56.2807C66.7135 56.2807 66.8619 56.06 67.2576 55.5633C67.4059 55.2321 67.6532 54.7355 67.9995 54.0732C68.3457 53.3558 68.593 52.9694 68.7413 52.8039C69.0381 52.0312 69.2854 51.4793 69.5821 51.2034L69.9778 50.2652C69.9778 49.9341 70.0274 49.8237 70.1758 49.8237L71.0166 47.9473C71.3133 47.5058 71.6595 46.7884 72.0551 45.8502C72.3519 45.2431 72.5498 44.8568 72.6981 44.6912C72.6981 44.5257 72.7477 44.3601 72.8961 44.2497C72.8961 44.0841 72.9455 43.8634 73.0938 43.5322C73.2422 43.2011 73.3906 42.9252 73.4896 42.5941C73.6379 42.1525 73.8358 41.6559 74.1326 41.2143C74.1326 40.8832 74.182 40.7177 74.2315 40.6625C74.2809 40.6073 74.3303 40.4969 74.3303 40.3314L74.5281 40.1106V39.8898L74.726 39.4484C75.0228 39.4484 75.1218 39.2276 75.1218 38.7309C75.2701 38.3998 75.4185 37.903 75.6164 37.1304C75.8142 36.3578 76.012 35.8059 76.111 35.5299C76.655 34.7573 76.8033 34.2055 76.5065 33.9295L76.3087 34.6469L75.4679 36.0266C75.0723 37.2408 74.726 38.0135 74.4292 38.3446L74.2315 38.7861C74.0831 38.9516 74.0335 39.062 74.0335 39.1172C74.0335 39.1724 73.9841 39.338 73.8357 39.4484C73.6874 39.7795 73.539 40.0002 73.44 40.2762C73.2917 40.4969 73.2423 40.7177 73.2423 40.8281C73.0939 40.8281 73.0443 40.9936 73.0443 41.2695L72.6488 42.2078C72.5004 42.3733 72.4508 42.5388 72.4508 42.6492L72.2531 42.87C72.1047 43.3115 71.9068 43.5875 71.6101 43.5875C71.7584 43.753 71.6596 44.0289 71.4123 44.5256L71.0166 45.4638C71.0166 45.6294 70.9671 45.7398 70.9177 45.795C70.8682 45.8502 70.8186 46.0157 70.8186 46.1261L69.9778 47.5058C69.6811 48.2784 69.4338 48.9407 69.1371 49.4926C68.8403 50.0445 68.593 50.5411 68.2963 50.9826L67.9006 51.9209C67.7522 52.0864 67.2576 53.0798 66.4663 54.901C66.0706 55.8392 65.7243 56.5567 65.4276 57.1086C65.1308 57.6604 64.8835 58.2123 64.5868 58.709C64.29 59.2608 63.9437 59.9231 63.5481 60.8061C63.1524 61.634 62.5094 62.9033 61.6686 64.6141C60.9761 66.1594 60.2343 67.7047 59.3935 69.25C58.5527 70.7952 58.0085 71.9541 57.7118 72.7268C57.415 73.4994 57.0689 74.2721 56.6732 75.0447C56.2775 75.8173 55.9312 76.4244 55.6345 76.921C55.0904 78.1352 54.7937 78.8527 54.7937 79.0182L53.9529 80.3979C53.8045 80.7291 53.6561 81.005 53.5572 81.3361C53.4088 81.6672 53.2604 81.9432 53.1615 82.2743C52.8647 83.047 52.568 83.7092 52.2218 84.2611C51.8756 84.813 51.3809 85.8615 50.6885 87.4068C50.1444 88.345 49.8477 88.9521 49.8477 89.2832C49.452 89.7247 49.1553 90.2214 49.0069 90.6629C48.6112 91.7667 48.1661 92.5393 47.7704 92.9809C47.622 93.1464 47.5725 93.3671 47.5725 93.6983C47.4241 94.0294 47.1274 94.5813 46.6328 95.4091C46.1382 96.2369 45.8909 96.7336 45.8909 96.8992L45.4952 97.3407C45.1984 98.2789 45.0995 98.6652 45.0995 98.4997C45.0995 98.6652 45.149 98.5548 45.2974 98.2789C45.6436 97.6166 45.792 97.3959 45.792 97.2303ZM45.3468 81.0602H45.149C45.149 81.2257 45.1984 81.2809 45.2479 81.2809C45.2973 81.2809 45.3468 81.1705 45.3468 81.0602ZM46.8306 78.0248C47.523 76.921 47.8693 76.314 47.8693 76.1485L48.0671 75.9277C48.0671 75.5966 48.2155 75.3206 48.4628 74.9895C48.6112 74.6583 48.7595 74.272 48.9574 73.8305C49.1552 73.389 49.3531 73.0027 49.452 72.6716C49.7487 72.3405 49.8971 72.1197 49.9466 71.8438C49.996 71.623 50.095 71.4023 50.2434 71.2919C50.6391 70.3537 50.9358 69.8018 51.0842 69.6914C51.6282 68.5877 52.2712 67.3735 52.9637 65.9938C53.6561 64.6141 54.3485 63.0689 55.041 61.358L55.4367 60.4198L55.6345 60.1991C55.7829 60.1991 55.9313 59.9783 56.0302 59.4816C56.0302 59.316 56.1786 58.9297 56.4259 58.3227C56.5743 57.9915 56.7227 57.7156 56.8216 57.3845C56.97 57.2189 57.0688 56.9982 57.1183 56.667C57.1677 56.3359 57.3656 56.06 57.6129 55.7289C57.7612 55.3977 57.9097 55.1217 58.0086 54.7906C58.157 54.4595 58.2064 54.2388 58.2064 54.0732C58.3547 53.9076 58.5031 53.8524 58.6021 53.8524C58.6021 53.5213 58.7505 53.0798 58.9978 52.4727L59.3935 51.5345V51.3138L58.9978 52.0312C58.8494 52.3623 58.701 52.6383 58.6021 52.9694C58.4537 53.3006 58.2558 53.7421 57.9591 54.3492C57.8107 54.6803 57.5634 55.1769 57.1183 55.9496C56.7226 56.7222 56.2775 57.5501 55.8818 58.4883C55.1893 60.0335 54.0518 62.4066 52.4691 65.6627C50.8864 68.9188 49.551 71.623 48.4134 73.7754C48.0177 74.9895 47.6714 75.7621 47.3747 76.0932L47.1769 76.5348C47.1769 76.7003 47.1274 76.8659 46.979 76.9763C46.2865 78.1904 45.8909 79.0182 45.7425 79.4045C45.5941 79.7908 45.5941 79.9013 45.7425 79.7357L46.8306 78.0248ZM46.5833 62.2962C46.5833 62.1306 46.5339 62.0755 46.3855 62.0755C46.0887 62.4066 46.0887 62.517 46.3855 62.517C46.5339 62.517 46.5833 62.4618 46.5833 62.2962ZM47.2263 60.9165C47.523 60.5854 47.622 60.3094 47.622 59.9783L47.8198 59.5368L48.2155 59.0953L48.8585 57.7156C49.0069 57.3845 49.1552 56.9982 49.3531 56.5567C49.5509 56.1152 49.7982 55.6185 50.095 55.177L51.1337 52.859C51.4305 52.5279 51.5293 52.3072 51.5293 52.1416L52.568 49.8237C52.8647 49.2166 53.211 48.444 53.7056 47.5058C54.2002 46.5676 54.6453 45.7398 55.041 44.9672L56.2775 42.2078L57.1183 40.3314C57.415 39.2276 57.6623 38.7309 57.9591 38.7309C57.8107 38.5653 57.8602 38.2342 58.0581 37.6823C58.2559 37.1304 58.5032 36.7441 58.8 36.413C58.9484 36.413 58.9978 36.2474 58.9978 35.9715C58.8494 35.9715 58.701 36.0267 58.6021 36.1922L57.9591 37.5719C57.9591 37.7375 57.8108 38.1238 57.5635 38.7309C57.4151 39.062 57.1677 39.5587 56.7226 40.3314C56.3269 41.104 56.0302 41.6559 55.8818 41.9318C55.7334 42.0974 55.6345 42.3181 55.5851 42.6492C55.5356 42.9804 55.3378 43.2563 55.0905 43.5875C54.7937 44.3601 54.2496 45.5742 53.4088 47.285C52.568 48.9959 52.0734 49.9893 51.9745 50.2652L51.5788 51.2034L51.381 51.6449L51.1831 51.8657C50.7874 52.8039 50.3423 53.6317 49.9466 54.4043C49.6498 55.177 49.4025 55.8944 49.1058 56.6119C48.809 57.3293 48.5618 57.8812 48.265 58.3227L47.4242 59.7024C47.4242 60.0335 47.3747 60.2543 47.2263 60.4198L46.8306 61.358C46.6822 61.6891 46.8306 61.5236 47.2263 60.9165ZM50.3423 115.277C50.0455 115.277 49.9466 115.332 49.9466 115.498C50.095 115.498 50.1445 115.442 50.1445 115.387C50.1445 115.332 50.1939 115.277 50.3423 115.277ZM53.211 55.5633C53.211 55.3977 53.1615 55.3425 53.0131 55.3425C52.7163 55.3425 52.6175 55.3977 52.6175 55.5633H53.211ZM55.7334 123.831V124.273H55.9313C55.9313 123.997 55.8817 123.831 55.7334 123.831ZM60.0859 50.7067C60.3826 50.3756 60.4816 50.21 60.4816 50.1548C60.4816 50.0996 60.3332 50.21 60.0859 50.486L59.8881 51.2034C59.987 51.0378 60.0859 50.8722 60.0859 50.7067ZM60.6794 32.7154C60.6794 32.3842 60.6299 32.3842 60.4816 32.7154C60.3332 32.8809 60.3332 32.9361 60.4816 32.9361C60.6299 32.9361 60.6794 32.8257 60.6794 32.7154ZM61.1246 36.1371H60.9267C60.9267 36.4682 60.9762 36.5233 61.1246 36.3578V36.1371ZM63.5976 58.5986H63.3997C63.3997 58.7642 63.3502 58.9298 63.2019 59.0401C63.2019 59.2057 63.2513 59.2609 63.3997 59.1505C63.548 59.0953 63.5976 58.9297 63.5976 58.5986ZM63.7954 30.8389C63.7954 30.6734 63.7459 30.6183 63.5976 30.6183V31.0597L63.7954 30.8389ZM64.6362 56.9981C64.6362 56.8326 64.6857 56.6671 64.8341 56.5567V56.1151L64.6362 56.5567L64.2406 56.9981C64.2406 57.1637 64.191 57.3293 64.0427 57.4397C63.8943 57.6052 63.8449 57.7708 63.8449 57.8811C63.6965 58.2123 63.647 58.3227 63.746 58.2123C63.7954 58.1571 63.8943 57.9364 64.0427 57.6604L64.6362 56.9981ZM65.6749 54.4595C65.8232 54.4595 65.8726 54.4043 65.8726 54.3492C65.8726 54.294 65.8232 54.2387 65.6749 54.2387C65.5265 54.4043 65.4771 54.5699 65.4771 54.6803C65.6254 54.6803 65.6749 54.5699 65.6749 54.4595ZM66.0706 53.5213C66.3673 53.1902 66.3673 53.0798 66.0706 53.0798C66.0706 53.2454 66.0211 53.3006 65.9717 53.3006C65.9222 53.3006 65.8726 53.4661 65.8726 53.742C65.7243 53.742 65.6749 53.7973 65.6749 53.8524C65.6749 53.9076 65.7243 53.9628 65.8726 53.9628C66.021 53.7972 66.0706 53.6869 66.0706 53.5213ZM66.7136 38.6757C66.7136 38.5101 66.664 38.4549 66.5157 38.4549C66.5157 38.6205 66.5652 38.6757 66.7136 38.6757ZM66.7136 52.1416C66.5652 52.3072 66.5157 52.4727 66.5157 52.5831C66.664 52.4175 66.7136 52.252 66.7136 52.1416ZM67.1091 51.6449C67.2575 51.4794 67.3071 51.3138 67.3071 51.2034L67.5049 50.7619L67.1091 51.2034C66.8124 51.2034 66.7136 51.369 66.7136 51.6449C66.7136 52.252 66.8618 52.252 67.1091 51.6449ZM67.1091 36.8545C67.2575 36.8545 67.3071 36.7993 67.3071 36.7441C67.3071 36.6889 67.2575 36.6337 67.1091 36.6337L66.9114 36.8545L67.1091 37.0752V36.8545ZM67.9501 49.8237C67.9501 49.6581 67.9995 49.6029 68.049 49.6029C68.0984 49.6029 68.1479 49.5478 68.1479 49.3822C67.8511 49.7133 67.7027 49.8789 67.6533 49.9341C67.6038 49.9893 67.4554 50.1548 67.3564 50.2652C67.3564 50.5963 67.5049 50.6515 67.7522 50.486C67.7522 50.21 67.8017 49.9892 67.9501 49.8237ZM68.5929 48.444C68.4446 48.444 68.2963 48.6096 68.1974 48.8855C68.4447 48.8855 68.5929 48.7199 68.5929 48.444ZM68.5929 35.4748L68.3952 35.6955C68.4941 35.6955 68.5929 35.6403 68.5929 35.4748ZM69.1866 47.7266C69.4833 47.1195 69.4833 46.7883 69.1866 46.7883L68.9886 47.0091L68.7909 47.2299C68.7909 47.3954 68.7413 47.561 68.5929 47.6713C68.5929 47.8921 68.7909 47.8921 69.1866 47.7266ZM68.9886 34.7574C68.8403 34.7574 68.7909 34.9229 68.7909 35.1988C68.9392 35.0885 68.9886 34.9229 68.9886 34.7574ZM69.6317 45.8502V45.6294C69.236 46.0709 69.236 46.3469 69.6317 46.3469V45.8502ZM71.2639 36.1371C71.2639 35.9715 71.2143 35.9163 71.0659 35.9163C71.0659 35.7507 71.0165 35.6955 70.8682 35.6955L71.2639 36.1371ZM75.0227 46.5676C75.0227 46.2364 75.0723 46.1261 75.2206 46.1261L75.0227 46.5676ZM76.8529 32.9361L77.0506 32.7154C76.9517 32.7154 76.8529 32.7706 76.8529 32.9361ZM77.5948 40.7728C77.6442 40.7728 77.6936 40.828 77.6936 40.9936V40.5521H77.4957C77.4957 40.7177 77.5453 40.7728 77.5948 40.7728ZM79.9687 33.5984C80.1171 33.4328 80.1171 33.3777 79.9687 33.3777C79.8204 33.3777 79.7709 33.5432 79.7709 33.8191L79.9687 33.5984ZM81.4525 29.9008C81.1558 29.9008 81.0074 30.0111 80.9579 30.2319C80.9085 30.4526 80.9086 30.6734 81.0569 30.7838C81.2053 30.9493 81.2053 31.1149 81.0569 31.2253L81.4525 30.2871C81.5514 30.2319 81.5514 30.0663 81.4525 29.9008ZM81.8482 28.3003C81.8482 28.1347 81.7988 28.1347 81.6504 28.3003C81.3537 28.6314 81.3537 28.7418 81.6504 28.7418C81.8977 28.4659 81.9966 28.3003 81.8482 28.3003ZM82.4417 27.3621C82.4417 26.7551 82.244 26.6447 81.7988 27.1414V27.3621C82.244 27.8036 82.4417 27.8036 82.4417 27.3621ZM83.4804 22.2848C83.3321 21.9537 83.2826 22.064 83.2826 22.5056V22.7263C83.431 22.7263 83.4804 22.6159 83.4804 22.2848ZM83.4804 24.382L83.2826 24.6027C83.431 24.6027 83.4804 24.4923 83.4804 24.382ZM98.6152 110.42C98.6152 110.089 98.6646 109.924 98.813 109.868C98.9614 109.813 99.0108 109.813 99.0108 109.979L98.6152 110.42ZM99.6538 108.544C99.6538 108.213 99.7032 108.102 99.7527 108.102C99.8022 108.102 99.8517 108.268 99.8517 108.544C99.8517 108.709 99.8022 108.765 99.6538 108.765V108.544Z" fill="#F6828A"/>
</svg>
