<svg width="138" height="153" viewBox="0 0 138 153" fill="none" xmlns="http://www.w3.org/2000/svg">
<path d="M50.6174 2.82078C47.2193 7.08306 45.9674 13.8471 46.0568 27.9312V40.44L41.5856 35.8998C36.2202 30.6182 25.7577 23.1129 19.3192 19.9625C13.5067 17.1828 6.26344 16.9048 4.11728 19.4066C1.8817 22.001 2.23939 27.2825 5.27978 34.6952C8.85671 43.683 14.6692 51.0957 22.7173 56.8405L29.4241 61.6587L24.5058 63.2339C18.2462 65.1797 11.8077 69.5347 7.06825 74.8162C-2.58946 85.7499 -2.32119 98.1661 7.69421 102.614C11.8077 104.467 22.9856 104.189 33.7164 102.058C38.7241 101.038 43.2847 100.205 43.7318 100.205C44.1789 100.205 42.927 103.262 40.9597 107.061C36.8462 115.03 33.001 129.485 33.001 137.175C33.001 143.754 35.1472 148.387 39.2606 150.425C42.6587 152.278 49.4549 152.649 52.9424 151.259C59.202 148.757 65.0145 138.658 68.0549 125.222C69.0386 120.867 70.0222 116.698 70.2905 115.956C70.4693 115.215 71.5424 117.346 72.7049 120.682C77.2655 134.21 83.7934 142.549 91.4838 144.588C102.125 147.368 109.816 139.121 108.743 126.149C108.206 119.663 105.166 110.49 101.857 105.671C100.784 104.189 100.068 102.706 100.247 102.428C100.516 102.243 102.662 102.892 104.987 104.004C111.068 106.783 123.587 107.525 127.611 105.393C135.659 101.038 134.765 87.6957 125.822 79.2638C123.855 77.4106 120.01 74.8162 117.327 73.6116L112.498 71.2952L119.116 68.3301C138.968 59.3423 143.439 47.0187 129.578 39.4208C127.074 38.0309 124.57 37.6603 117.685 37.6603L108.832 37.7529L109.368 34.8805C109.726 33.398 110.173 27.4679 110.531 21.8157C110.978 12.0866 110.889 11.3453 109.1 9.49217C108.117 8.47293 106.328 7.54635 105.255 7.54635C98.8165 7.54635 86.029 19.7772 79.9482 31.8228L76.4607 38.5868L75.2982 31.3595C73.4203 19.5919 66.6241 5.32255 61.1693 1.61623C57.5924 -0.792885 53.2107 -0.329595 50.6174 2.82078ZM60.2751 7.63901C68.5915 17.2755 73.3309 36.919 70.9165 52.1149C70.3799 55.4506 70.2905 55.4506 65.9088 55.6359C57.8607 55.8213 54.1049 51.9296 51.8693 41.0886C49.8126 30.7109 51.1539 12.0866 54.552 5.50787C55.8039 3.09876 56.5193 3.37673 60.2751 7.63901ZM105.792 20.5185C105.702 35.0658 101.589 46.2775 93.0934 55.8213C86.2973 63.5119 84.7771 63.9752 80.6636 59.8982L77.5338 56.7478L78.9646 49.5205C81.1107 38.4015 86.3867 28.2091 94.6136 19.4066C100.158 13.5691 102.036 12.0866 103.735 12.3646C105.792 12.6426 105.881 12.9205 105.792 20.5185ZM17.5308 23.2982C28.5298 28.3944 41.3174 40.0694 48.8289 51.837L53.8366 59.6203L51.9587 61.4734C50.1703 63.4192 49.8126 63.4192 43.5529 62.2147C33.8058 60.3615 28.1721 57.2111 20.3029 49.1499C12.4336 41.1813 7.96248 32.842 7.96248 26.4486C7.96248 24.4101 8.23075 22.3717 8.58844 22.0937C9.66152 20.8891 13.775 21.4451 17.5308 23.2982ZM125.286 41.8299C129.22 43.0344 132.261 46.6481 132.261 50.2618C132.261 55.6359 122.245 63.6972 111.068 67.4035C108.743 68.1448 102.036 69.0714 96.3127 69.3494C87.5492 69.8127 85.7607 69.72 85.7607 68.6081C85.7607 67.8668 87.1915 66.477 88.98 65.4577C93.3617 63.0486 101.857 53.4122 104.54 47.8527C105.792 45.2582 106.865 43.0344 106.954 42.8491C107.938 41.1813 120.636 40.5327 125.286 41.8299ZM72.079 59.5276C78.5174 62.0294 81.9155 68.8861 80.8424 77.1326C80.2165 81.6729 77.4444 86.9544 75.0299 88.2516C66.9818 92.4212 64.478 92.6992 58.9337 89.7342C46.8616 83.4334 48.9183 64.8091 62.153 59.8982C66.4453 58.323 68.7703 58.2304 72.079 59.5276ZM44.7154 66.477C46.951 67.6815 47.0404 67.8668 46.5933 74.5382C46.1462 82.1362 47.9347 87.2324 52.227 90.7534C53.4789 91.7726 54.4626 92.7919 54.4626 93.0699C54.4626 94.923 27.4568 100.483 17.799 100.575C9.75095 100.668 6.71056 99 5.19036 93.6258C4.29613 90.6607 4.38555 89.3635 5.7269 85.6572C7.87306 79.9124 15.5635 71.5732 21.7337 68.3301C29.4241 64.2532 39.0818 63.5119 44.7154 66.477ZM113.303 75.9281C120.099 78.7078 124.123 82.1362 126.538 87.603C129.399 93.9964 129.31 96.9615 125.912 100.39C123.318 103.17 123.05 103.17 116.701 102.799C107.133 102.15 99.8896 98.3514 91.4838 89.5488C84.8665 82.6921 84.8665 82.6921 85.403 78.7078C85.7607 76.484 86.4761 74.3529 87.0127 73.9823C87.5492 73.6116 92.6463 73.4263 98.28 73.6116C105.881 73.8896 109.816 74.4456 113.303 75.9281ZM98.9059 109.934C105.613 123.369 106.06 133.098 100.068 139.306C90.5002 149.221 75.7453 128.28 74.4934 102.984L74.0463 94.1818L77.8915 91.3093L81.7367 88.5296L88.4434 95.479C93.1829 100.39 96.3127 104.745 98.9059 109.934ZM66.803 96.0349C67.5184 96.7762 64.7463 118.458 62.9578 125.778C58.3972 144.495 50.4385 152.834 42.2116 147.553C38.0087 144.773 36.8462 139.955 38.277 130.967C40.7808 115.586 47.3087 101.965 54.3732 97.2395C57.9501 94.923 59.0232 94.645 62.5107 95.1083C64.7463 95.479 66.6241 95.8496 66.803 96.0349Z" fill="black"/>
</svg>
