<svg width="194" height="275" viewBox="0 0 194 275" fill="none" xmlns="http://www.w3.org/2000/svg">
<path d="M48.7589 1.87874C44.1089 4.05133 39.8166 9.26555 37.4021 16.0006C35.7925 20.3458 35.3454 24.2564 34.9877 34.2503C34.5406 48.8067 36.1502 62.8199 40.2637 80.2006C41.6945 86.1752 42.857 91.3895 42.857 91.7154C42.857 92.1499 40.532 91.7154 37.7598 90.9549C34.8983 90.0859 29.7117 89.4341 26.2242 89.4341C14.3309 89.4341 6.104 94.4311 2.16937 103.882C-0.423901 110.291 -0.692171 115.831 1.36456 124.304C6.46169 145.378 23.0944 158.957 54.0349 167.321L57.6118 168.299L54.5714 170.254C49.832 173.296 42.0522 182.856 39.7272 188.287C33.5569 203.169 38.2964 213.272 51.3522 213.272C68.1638 213.272 88.5523 198.715 105.453 174.6C108.583 170.146 111.355 166.561 111.713 166.561C112.428 166.561 117.883 187.744 121.46 204.69C124.858 220.659 127.541 237.822 129.955 258.353C131.833 274.43 131.833 274.647 134.069 274.647C136.751 274.647 136.751 273.996 134.069 251.618C130.849 224.895 126.021 199.91 119.224 174.817C116.899 166.344 115.469 159.392 115.916 158.848C116.363 158.305 121.46 157.11 127.362 156.241C147.125 153.091 166.887 146.682 178.333 139.73C188.259 133.646 193.088 126.368 193.088 117.569C193.088 113.767 192.552 112.464 189.958 109.422C188.17 107.467 185.308 105.294 183.43 104.642C178.333 102.796 168.228 102.252 162.058 103.339C158.928 103.882 156.425 104.099 156.425 103.773C156.425 103.556 157.408 99.3194 158.66 94.4311C162.237 79.7661 164.651 59.9955 164.294 47.6118C164.026 38.0524 163.668 36.097 161.343 30.8828C157.498 22.5184 152.579 18.4991 145.336 17.9559C140.686 17.63 138.987 17.9559 135.142 20.3458C129.419 23.8219 121.907 33.164 117.883 41.6371C116.184 45.2219 114.574 48.1549 114.306 48.1549C114.038 48.1549 111.892 44.7874 109.656 40.6595C104.291 31.3173 91.5032 16.2178 84.3494 10.895C72.2772 1.98737 56.9858 -1.81466 48.7589 1.87874ZM69.5051 7.09296C77.1061 10.895 83.8128 16.0006 91.1455 23.3874C97.4052 29.7965 106.705 43.8097 110.103 51.8483C113.68 60.5387 115.2 60.1042 119.582 48.9153C126.468 31.8605 135.231 22.0838 143.726 22.0838C154.994 22.0838 160.896 34.9021 159.644 56.8453C159.107 67.3823 155.262 89.3255 152.043 100.732C149.986 107.684 150.254 109.422 153.205 108.553C164.115 105.294 180.39 106.054 185.129 110.182C193.177 117.135 186.202 131.691 171.179 139.295C167.513 141.25 159.107 144.401 152.579 146.356C139.255 150.593 114.574 155.264 113.501 153.851C113.144 153.417 112.428 151.353 111.802 149.289C110.908 145.921 110.998 145.378 112.786 143.858C121.013 137.014 130.224 123.218 135.41 109.856C139.345 99.9712 139.792 95.5174 137.109 95.0829C135.499 94.757 134.874 95.9519 132.727 103.013C129.508 113.767 123.07 125.716 115.648 134.624C112.339 138.535 109.567 141.576 109.477 141.359C109.388 141.142 107.063 135.167 104.38 127.998L99.5513 114.962L103.397 109.205C109.298 100.406 115.111 87.5874 117.615 77.8108C120.029 68.6859 120.029 65.5356 117.615 65.5356C115.916 65.5356 114.932 67.7082 113.591 74.7691C111.713 83.7854 99.9984 108.987 97.584 108.987C97.2263 108.987 94.9907 104.316 92.5763 98.6676C85.7801 82.6991 80.0571 71.5103 78.358 71.1844C75.2282 70.424 75.9436 74.3346 80.683 84.2199C88.1946 99.8626 91.5032 107.901 90.7878 108.77C89.4465 110.4 70.2205 110.291 63.8714 108.553C59.758 107.467 57.3435 107.358 56.7176 108.01C54.1243 111.16 67.3589 113.767 82.2926 113.115L93.56 112.464L96.4215 120.285C101.787 134.407 105.364 144.835 105.096 144.835C104.917 144.835 100.803 145.921 95.9744 147.116C90.6984 148.529 83.4551 149.506 78.1792 149.615C70.0416 149.724 68.7897 149.398 64.1397 146.682C59.0426 143.64 56.3599 143.206 56.0022 145.378C55.9128 145.921 58.2378 147.877 61.1887 149.724C65.8387 152.548 67.7166 152.982 75.4965 153.308C81.309 153.634 87.3003 153.091 92.4869 151.896C108.047 148.42 106.616 148.203 108.315 154.069L109.924 159.174L107.242 163.628C90.9667 190.568 64.8551 211.534 49.7426 209.687C44.1089 209.035 41.9627 206.319 41.9627 199.802C41.9627 189.482 49.832 177.75 61.3676 170.906C64.5868 169.06 66.9118 167.104 66.4647 166.67C66.0176 166.127 62.4407 165.149 58.506 164.389C33.9146 159.826 15.1357 146.791 7.98189 129.41C2.88476 116.917 3.60015 107.358 10.2175 99.6453C16.6559 92.0412 27.4762 90.7377 41.3368 95.9519C50.0108 99.2108 50.2791 98.8849 46.7916 86.3925C41.4262 66.8392 39.7272 54.8899 39.7272 36.7488C39.7272 20.563 39.7272 20.4544 42.4993 14.4798C46.4339 6.11529 50.3685 3.39956 58.0589 3.9427C61.457 4.15996 66.1964 5.57215 69.5051 7.09296Z" fill="black"/>
</svg>
